/* XPM */
static char *_f253fd18b024e80a956b0608e7a3366hUWZgogKU1oJNXX5[] = {
/* columns rows colors chars-per-pixel */
"32 32 149 2 ",
"   c #554330",
".  c #645433",
"X  c gray31",
"o  c #5E534B",
"O  c #545454",
"+  c #595757",
"@  c #5B5A5A",
"#  c #755A44",
"$  c #635F5C",
"%  c #5C6151",
"&  c #5E6E52",
"*  c #7D614B",
"=  c #646A5C",
"-  c #627451",
";  c #657852",
":  c #666565",
">  c #696565",
",  c #6D6C6C",
"<  c #776B61",
"1  c #716D6D",
"2  c #7F746A",
"3  c #737373",
"4  c #7A7474",
"5  c #7D7877",
"6  c #7B7A7A",
"7  c #BA631D",
"8  c #BC6A2B",
"9  c #A76331",
"0  c #A06338",
"q  c #AD6E3C",
"w  c #AC713D",
"e  c #C07030",
"r  c #C6793E",
"t  c #846C58",
"y  c #A76C40",
"u  c #AA6E42",
"i  c #A2714E",
"p  c #B27444",
"a  c #B57848",
"s  c #BF7D48",
"d  c #AF7B54",
"f  c #AD7D5B",
"g  c #B07B50",
"h  c #917A67",
"j  c #9E7E61",
"k  c #9E7E6C",
"l  c #847C76",
"z  c #857D7C",
"x  c #A57E66",
"c  c #7CA655",
"v  c #7F837B",
"b  c #BB875E",
"n  c #9E826C",
"m  c #88807F",
"M  c #9C8575",
"N  c #9F8D77",
"B  c #938375",
"V  c #AB8465",
"C  c #A28069",
"Z  c #BC8A64",
"A  c #B18568",
"S  c #B68E6D",
"D  c #A68976",
"F  c #A48B7C",
"G  c #A78873",
"H  c #B48F71",
"J  c #AE947E",
"K  c #B49070",
"L  c #B2967A",
"P  c #CF8145",
"I  c #C78048",
"U  c #CA854A",
"Y  c #D68743",
"T  c #D98B4B",
"R  c #CE8C57",
"E  c #C18B5E",
"W  c #D18F57",
"Q  c #D3945F",
"!  c #DC9355",
"~  c #E49555",
"^  c #E69A5A",
"/  c #EB9F5F",
"(  c #CD9565",
")  c #D19665",
"_  c #D49867",
"`  c #D89863",
"'  c #D69B6B",
"]  c #DC9E6A",
"[  c #E79D60",
"{  c #DFA16E",
"}  c #DFA370",
"|  c #DBA77A",
" . c #E4A066",
".. c #EBA265",
"X. c #EBA56D",
"o. c #E0A472",
"O. c #EAAE7C",
"+. c #828282",
"@. c #8D8584",
"#. c #898B86",
"$. c #8B8B8B",
"%. c #918786",
"&. c #918A83",
"*. c #9C8981",
"=. c #968C8B",
"-. c #988E8D",
";. c #9A908F",
":. c #969696",
">. c #9C9190",
",. c #9B9B9B",
"<. c #B39984",
"1. c #BC9D80",
"2. c #A19897",
"3. c #A29999",
"4. c #97AA86",
"5. c #9CBB82",
"6. c #BCA287",
"7. c #B9A28B",
"8. c #A0A997",
"9. c #A3A3A3",
"0. c #A7A8A7",
"q. c #ACACAC",
"w. c #B3B3B2",
"e. c #BDBDBD",
"r. c #CFA886",
"t. c #DDAB80",
"y. c #E1AE82",
"u. c #E7B080",
"i. c #EBB383",
"p. c #E2B58B",
"a. c #ECB588",
"s. c #F1B887",
"d. c #F6BB8B",
"f. c #E4BA96",
"g. c #C7B5A5",
"h. c #E6C19E",
"j. c #F8C293",
"k. c #F4C49A",
"l. c #F9C79C",
"z. c #FCC89B",
"x. c #C3D0B7",
"c. c #F7CCA7",
"v. c #FDCEA4",
"b. c #FFCEA8",
"n. c #FDD0A9",
"m. c #C5C5C5",
"M. c #CDD3C7",
"N. c #D3D3D4",
"B. c #E4D2C2",
/* pixels */
";.-.-.3.2.3.3.3.3.2.3.3.3.3.2.3.3.2.3.3.3.3.2.3.3.3.3.2.3.3.2.3.",
";.=.-.>.=.>.-.=.>.4 > 5 4 3 3 3 , 3 , 3 z z =.>.=.-.>.=.;.-.-.>.",
";.-.-.;.=.;.-.=.> , $.:.,.0.0.0.0.0.0.9.,., > @.-.-.;.=.;.-.-.>.",
";.-.-.-.-.-.-.-.5 +.+.9.e.,.q.m.0.w.e.0.q.w.5 =.-.-.-.=.-.-.=.-.",
">.=.-.>.=.>.-.%., :.l V G &.K J &.S S &.H ;.$.@.=.-.>.=.;.-.-.>.",
"-.-.-.-.-.-.-.=., :.2 ( k.h.<.M 6.l.f.B M r.t @.-.-.-.-.-.=.-.-.",
";.=.-.;.=.;.=.x p h < ( n.c.n L c.v.v.1.t t.7 d *.-.;.-.-.-.-.>.",
";.=.-.;.=.>.=.9 / E b  .v.k.* j z.z.z.V   | Y 8 n A E Z D -.-.>.",
";.-.-.-.-.-.-.G I T ^ ..v.a.j.z.z.z.z.z.z.d.U V C U b.i.a -.=.-.",
";.=.-.;.=.;.-.=.x 8 ~ ..v.i.Q W W k.v.v.v.a.i ;.y R v.i.p -.-.>.",
";.=.-.;.=.;.-.-.M a ~ ..v.v.v.z.v.v.v.v.v.) k -.f ` { u.p -.=.-.",
";.=.-.;.=.>.-.=.;.C P [ l.v.v.v.v.v.v.v.i.d =.>.M e O.i.p -.-.;.",
";.=.-.;.=.>.-.=.;.=.F d s ] y.y.o.o.' g F %.4 3 2 E d.' f -.-.>.",
";.-.-.-.-.-.-.-.-.%.z : o g.B.N . 7.g.$ : , ,.w.9.t _ u *.-.=.-.",
">.=.-.>.=.>.-.=.z : 3 :.:.$.e.; c = N.v w.w.w.w.q.+.O @.;.-.-.>.",
";.-.-.;.=.;.-.=.> , ,.w.w.q.6 x.5.M.@ q.w.,.,.3 : 1 z =.-.-.-.-.",
"-.-.-.-.=.-.-.5 : $.9.:.0.w.$.4.c 8.6 w.+.1 , 5 m =.-.=.-.-.-.-.",
";.=.-.>.=.>.=.+ +.:.:.: :.w.,.- c % w.w.@ @.=.>.=.=.>.=.;.-.-.>.",
";.-.-.-.-.-.-.@ +.:.: 3 ,.w.q.v & #.w.w.@ @.=.-.-.-.-.=.-.-.=.-.",
";.=.-.;.=.;.-.+ +.:.> 3 ,.w.q.0.6 ,.w.w.@ @.=.;.-.-.;.=.-.=.-.>.",
";.=.-.;.=.;.-.@ e.m.3 3 :.w.w.q.3 ,.w.w.@ @.=.;.-.-.;.=.;.-.-.;.",
";.=.-.;.=.;.-.0 X.s.p.q ,.w.q.9.6 ,.w.w.@ @.=.;.-.-.;.=.;.-.=.-.",
";.=.-.>.=.>.-.F r ! o.w ,.w.q.9.6 ,.w.w.@ @.=.>.=.-.>.=.;.-.-.>.",
";.-.-.-.-.-.-.-.*.C # $ 3 +.+.> @ 3 6 +.X @.-.-.-.-.-.-.-.-.=.-.",
">.=.-.>.=.>.-.=.;.=.@ , :.w.+., : 6 $.q.@ @.=.>.=.-.>.=.;.-.-.>.",
";.=.-.;.=.>.-.=.;.=.@ 3 ,.q.> %.> 6 $.w.@ @.=.>.=.-.>.=.-.-.-.>.",
"-.-.-.-.-.-.-.-.-.=.@ 3 :.q., %.> 3 $.w.@ @.-.-.-.-.-.-.-.=.-.-.",
";.=.-.>.=.>.=.=.>.=.@ 3 :.e.6 =.> 3 $.w.@ @.=.>.=.=.>.=.;.-.-.>.",
";.=.-.-.=.-.-.=.-.=.@ , $.9.3 %.> 3 +.,.O @.=.-.-.-.-.=.-.-.=.-.",
";.=.-.;.=.;.-.=.-.=.+ @ , +.6 5 > @ , 6 +.1 =.>.-.-.;.=.-.-.=.;.",
";.=.-.;.=.;.-.=.-.=.@ @ : > : , > @ : : > O =.>.-.-.;.=.-.-.-.;.",
"-.-.-.-.-.-.-.-.-.-.@.z z z z @.@.z z z z @.-.-.-.-.-.-.-.-.-.-."
};
