/* XPM */
static char *a1628faf58bf4e72f3a01c4420bd318cqqGSvxFhOaZMsyl3[] = {
/* columns rows colors chars-per-pixel */
"32 32 7 1 ",
"  c #948A89",
". c #968C8B",
"X c #978D8C",
"o c #988E8D",
"O c #9A908F",
"+ c #9B9190",
"@ c #9C9291",
/* pixels */
"OooOXOooOXoooOXooXOoooXOooOXOoXo",
"OXo+ +oX+.ooX@.OO.+Xoo.@Xo+ Ooo@",
"OooOXOoXO.oooOXooXOXooXOooO.Ooo@",
"OooooooooXOooooooooXoOXooooXooXo",
"+.o@ @o.+.OoX@ OO +XoO @Xo@ Ooo@",
"oooooooooXoooooooooXoooooooooXoo",
"OXoO.OXXO.ooXO.oo.OXoo.OXoO.ooo@",
"O.oO +X.O.ooX+ oo OXoo.+XX+ Ooo@",
"OooooooooXooXooooXoXooXooooXooXo",
"OXoO.OoXO.ooX+.oo.OXoo.+XoO.oXo@",
"OXoOXOooOXooXOXooXOXooXOooOXOoXo",
"OXoO.+oXOXooX+.oo.+XooX+Xo+.OooO",
"OXoO.+oXO.ooX+.oo.+XooX+Xo+.Ooo@",
"OooooooooXoooooooooXoOooooooooXo",
"+.o+ @o.+.OoX@ OO +XoO @Xo@ Ooo@",
"OooOXOoXoXoooOXooXoXooXOoooXoooo",
"ooooXooXoXooXoXooXoXooXooooXoooo",
"O.o+ +X.+.oX.@ oo +Xoo @.X+ Ooo@",
"OooooooooXooXooooXoXooXooooXooXo",
"OXoOXOoXO.ooX+Xoo.OXoo.OooO.oXo@",
"OXoOXOooOXooXOXooXOXooXOooOXOooO",
"OXoOXOooOXooX+XooXOXooXOooOXOoXo",
"OXo+ +oX+.ooX@.OO +Xoo.@Xo+ Ooo@",
"OooooooooXoooooooooXoOooooooooXo",
"+Xo+ +oXO.OoX@.OO OXoO.+Xo+ Ooo@",
"OXoO.+oXO.OoX+.Oo.OXoo.+Xo+.ooo@",
"oooooooooXoooooooooXoooooooooXoo",
"O.o+ +X.+.oX.@ oo +Xoo @.X+ Ooo@",
"OXooXooXoXooXOXooXoXooXoooo.ooXo",
"OXoOXOoXo.ooXOXooXOXoo.OooOXooXO",
"OXoO.OoXo.ooXO.oo.oXooXOooO.oooO",
"oooooooooooooooooooooooooooooooo"
};
