/* XPM */
static char *f4ace996bd814212f5db5ec868e9dc57YvbzeBdPZL6X28G3[] = {
/* columns rows colors chars-per-pixel */
"25 25 7 1 ",
"  c #958B8A",
". c #968C8B",
"X c #978D8C",
"o c #988E8D",
"O c #9A908F",
"+ c #9B9190",
"@ c #9C9291",
/* pixels */
"OXOXOXOXOXOXOXOXOXOXOXOXo",
"O.@ @ +.O.@ @ +.O.@ @ +.@",
"OooooooXOooooooXOooooooXo",
"+ @ @ +.+ @ @ +.+ @ @ +.@",
"oooooooXoooooooXoooooooXo",
"O @ @ +.O @ @ +.O @ @ +.@",
"OXoooXoXOXoooXoXOXoooXoXo",
"O.+.+.O.O.+.+.O.O.+.+.O.@",
"OXOXOXOXOXOXOXOXOXOXOXOXo",
"O.@ @ +.O.@ @ +.O.@ @ +.@",
"OooooooXOooooooXOooooooXo",
"+ @ @ +.+ @ @ +.+ @ @ +.@",
"oooooooXoooooooXoooooooXo",
"O @ @ +.O @ @ +.O @ @ +.@",
"OXoooXoXOXoooXoXOXoooXoXo",
"O.+.+.O.O.+.+.O.O.+.+.O.@",
"OXOXOXOXOXOXOXOXOXOXOXOXo",
"O.@ @ +.O.@ @ +.O.@ @ +.@",
"OooooooXOooooooXOooooooXo",
"+ @ @ +.+ @ @ +.+ @ @ +.@",
"oooooooXoooooooXoooooooXo",
"O @ @ +.O @ @ +.O @ @ +.@",
"OXoooXoXOXoooXoXOXoooXoXo",
"O.+.+.O.O.+.+.O.O.+.+.O.@",
"ooooooooooooooooooooooooo"
};
