/* XPM */
static char *_255706da41d45a2f1572e9ad797a082ge5aeJ1AxfwVUlym[] = {
/* columns rows colors chars-per-pixel */
"32 32 194 2 ",
"   c #0C334A",
".  c #133450",
"X  c #193A5A",
"o  c #2A344F",
"O  c #30374F",
"+  c #2B3450",
"@  c #243D5B",
"#  c #2A3857",
"$  c #323D5E",
"%  c #373B53",
"&  c #443E59",
"*  c #5C395C",
"=  c #1D435E",
"-  c #17445D",
";  c #3E404B",
":  c #3C425F",
">  c #3E4B5E",
",  c #33465F",
"<  c #28486C",
"1  c #3B4361",
"2  c #3B4963",
"3  c #304367",
"4  c #4F414C",
"5  c #59454D",
"6  c #40475F",
"7  c #4A475C",
"8  c #45485E",
"9  c #49485C",
"0  c #4B4554",
"q  c #534552",
"w  c #554058",
"e  c #5A4E5C",
"r  c #52495E",
"t  c #5E505D",
"y  c #644E4D",
"u  c #694E49",
"i  c #69454C",
"p  c #7F424A",
"a  c #6F524C",
"s  c #73564D",
"d  c #6F4F58",
"f  c #634955",
"g  c #734D5B",
"h  c #70445D",
"j  c #6F5551",
"k  c #6E5A5E",
"l  c #6B515D",
"z  c #715654",
"x  c #7E5E53",
"c  c #755C5A",
"v  c #755F56",
"b  c #7E6354",
"n  c #796358",
"m  c #424660",
"M  c #424B68",
"N  c #5E4960",
"B  c #43516F",
"V  c #575064",
"C  c #5F5262",
"Z  c #52556A",
"A  c #54596D",
"S  c #5B586C",
"D  c #4D5A7B",
"F  c #5B5D73",
"G  c #604261",
"H  c #6A4B64",
"J  c #644669",
"K  c #7B4B6C",
"L  c #615564",
"P  c #665A65",
"I  c #6B5864",
"U  c #735D66",
"Y  c #5A6477",
"T  c #6F6163",
"R  c #75656D",
"E  c #79656D",
"W  c #616D77",
"Q  c #6B6F7A",
"!  c #6B6472",
"~  c #756B74",
"^  c #7A717A",
"/  c #7F7A7F",
"(  c #BD5F39",
")  c #8C3D43",
"_  c #825F4C",
"`  c #81515F",
"'  c #9D5553",
"]  c #9C5C56",
"[  c #AA5B44",
"{  c #86624E",
"}  c #8D6C4F",
"|  c #89664F",
" . c #936B4F",
".. c #94724F",
"X. c #846154",
"o. c #8B6552",
"O. c #8D6952",
"+. c #926D51",
"@. c #946B59",
"#. c #9C6659",
"$. c #8F7157",
"%. c #957350",
"&. c #997651",
"*. c #94745E",
"=. c #99715D",
"-. c #9F7A54",
";. c #A3615E",
":. c #B57C55",
">. c #B17F5C",
",. c #A37C52",
"<. c #844C6D",
"1. c #884D6F",
"2. c #9F506F",
"3. c #9D5A6A",
"4. c #8C4C71",
"5. c #934D72",
"6. c #8F5578",
"7. c #9D5272",
"8. c #865E66",
"9. c #A8576E",
"0. c #A7586E",
"q. c #A05170",
"w. c #AC5673",
"e. c #B25777",
"r. c #B65877",
"t. c #BC5E73",
"y. c #B45778",
"u. c #B95779",
"i. c #B8597A",
"p. c #B75A78",
"a. c #956663",
"s. c #956569",
"d. c #8F786D",
"f. c #957663",
"g. c #9B756D",
"h. c #9C7D6A",
"j. c #9F7461",
"k. c #82797E",
"l. c #907174",
"z. c #A66D6B",
"x. c #A37664",
"c. c #A67966",
"v. c #AB7D6D",
"b. c #AA756A",
"n. c #B17061",
"m. c #B07F60",
"M. c #B37A6E",
"N. c #BC7A6C",
"B. c #A77271",
"V. c #AE7772",
"C. c #AD7D71",
"Z. c #BD7C73",
"A. c #C05F74",
"S. c #AB8358",
"D. c #AF8655",
"F. c #B98357",
"G. c #B4835A",
"H. c #B8845A",
"J. c #B4895C",
"K. c #BA8D5E",
"L. c #BF905E",
"P. c #93817A",
"I. c #AF806F",
"U. c #A88365",
"Y. c #B58568",
"T. c #BE9060",
"R. c #B38373",
"E. c #BB8475",
"W. c #BD8976",
"Q. c #BE8B78",
"!. c #CD8E56",
"~. c #C78A59",
"^. c #C1925D",
"/. c #D2955B",
"(. c #C18778",
"). c #C28D79",
"_. c #C88F7A",
"`. c #C6907B",
"'. c #607285",
"]. c #7A7A81",
"[. c #847D83",
"{. c #838184",
"}. c #8C8486",
"|. c #8B858A",
" X c #8C888A",
".X c #968D8D",
"XX c #968C8B",
"oX c #988E8D",
"OX c #998E8D",
"+X c #988E8D",
"@X c #9A908F",
"#X c #9A908F",
"$X c #9C9190",
"%X c #9B9190",
/* pixels */
"@XoXoX@X.X@XoX|.Y D D B 1 $ $ $ $ $ : : : 1 M Z }.oX@X.X@XoX.XoX",
"@X.XoX%XXX.X'.~ d.h.h.f.f.*.*.*.*.$.b v n v c k P Q .XXX@X.XoX$X",
"@XoXoX.X X[.! l.Y.^.^.L.^.L.^.^.^.K.,.....%.+.o.U V ^  X.XoXoX$X",
"@XoXoX|.Y ~ U.L.K.K.K.K.K.K.K.K.T.J.-...%.%.%.+.O.x e Z [.oX.XoX",
"%XXXoX|.B ! *.D.K.T.K.K.K.K.T.K.S.-.&...%.%.%.%.+.X.S M |.oXoX$X",
"oXXX}.^ C k b %.S.J.J.J.J.J.J.S.&.} ..%.%.%.%.%.O.X.k L ^ }.XXoX",
"@X[.Z C x O.O...%.%.%.%.%.%.%.%.%.%.%.%.%.%.%.%.O.o.O.b C Z [.$X",
"@X/ 6 e X.+.O.O.| | O.%.%.......%.%.%.%.%.%.+.O.o.o.+.X.e 6 [.$X",
"@X[.2 e x O.o.o.@.@.O.O.O.+.+.%.+.+.+.+.%.+.o.o.o.o.O.x e 2 [.oX",
"@X[.Z L X.O.o.@.c.c.@.o.o.o.o.o.o.o.o.o.o.o.o.o.o.o.O.X.L Z [.$X",
"A P c X.o.o.{ @.R.E.c.@.o._ { { { { { o.o.o.o.o.o.o.o.o.X.c P A ",
"1 t X.+.O.o._ @.E.).E.v.c.j.x.x.x.j.=.@.o.{ { X.o.o.o.O.+.X.t 1 ",
"o q x O.o.o.{ =.R.).).).).).).).).Q.I.x.@.O.O.O.o.O.o.o.O.x q o ",
"+ q x O.o.O.=.v.E.)._._.).Q.Q.).).Q.Q.W.Q.Q.E.I.c.=.O.o.O.x q + ",
"+ q x O.{ @.c.R.Q.R.g.g.R.).).Q.Q.).).E.g.g.Q.).R.c.@.{ O.x q + ",
"+ q x O.{ @.b.E._.C.q q v.`.).Q.Q.).`.v.q q C._.E.b.@.{ O.x q + ",
"o q x O.{ @.b.E.).R.z j I.`.).).).).`.I.j z R.).E.b.@.{ O.x q o ",
"4 y X.O.{ @.M.Z.N.n.] #.M.(.E.E.E.E.(.M.#.] n.N.Z.M.@.{ O.X.y 4 ",
"u a x X.o.a.z.z.] ' ' ;.z.B.B.B.B.B.B.z.;.' ' ] z.z.a.o.X.x a u ",
"a y ; f 7.7.H > 9 7 7 9 r V S F F S V r 9 7 7 9 > H 7.7.H 9 y a ",
"P.R . * w.p.5.<.<.1.4.K & & K 6.6.K & & K 4.1.<.<.5.r.w.J - ~ P.",
"|.k.T 8.3.w.e.y.y.y.i.q.w w 2.u.u.2.w w q.i.y.y.y.e.w.3.8.R k.|.",
"$ U R.R.P G 9.A.t.t.t.0.N N 0.A.A.0.N N 0.t.t.t.A.9.G P R.R.U $ ",
"3 E Q._.C.s.` h H <.w.e.7.7.w.r.r.w.7.7.e.w.<.H h ` s.C._.Q.E 3 ",
"A R g.R.V.a.0   5 g <.5.5.5.4.4.4.4.5.5.5.<.g 5   0 a.V.R.g.R A ",
"@X[.Z m % O . i [ [ d , 8 9 9 9 9 9 9 8 , d [ [ i . O % m Z [.$X",
"oXXX[.].].Y X z :.~.G.>.G.F.H.H.H.H.F.G.>.G.~.:.z X Y ].].[.XXoX",
"oXXXoX%XXX{.@ c H././.~.Y.m.m.>.>.m.m.Y.~././.H.c @ {.XX@XoXoX$X",
"@X.XoXoX.X].@ c :.!.!.G.R < 2 1 1 2 < R G.!.!.:.c @ ].XXoXoX.XoX",
"@X.XoX@X.X].- g [ ( ( [ g = Q  X XQ = g [ ( ( [ g - ]..XoXoX.X@X",
"@X.XoX@XXX XW I p ) ) p l W }.oXoX}.W l p ) ) p I W  XXXoXoXoX@X",
"oXoXoXoXXXoXoX{.> @ @ > {.oXoX.X.XoXoX{.> @ @ > {.oXoXXXoXoXoXoX"
};
