/* XPM */
static char *c6959e7164724aafe14dfe397edb1e37XNWkLL3wlqN9phDl[] = {
/* columns rows colors chars-per-pixel */
"16 22 18 1 ",
"  c None",
". c #3A3A50",
"X c #46465E",
"o c #674D49",
"O c #565972",
"+ c #AB4A36",
"@ c #B35E3F",
"# c #AA5E56",
"$ c #8A6552",
"% c #8D7051",
"& c #957350",
"* c #A85377",
"= c #B95D72",
"- c #A77A67",
"; c #B57972",
": c #BA8D5E",
"> c #BF8B78",
", c #C78C59",
/* pixels */
"    OOXXXXXX    ",
"   O:::::&%$X   ",
"  O::::::&&&$X  ",
"  X%::::&&&&$X  ",
" X$%&&&&&&&&$$X ",
" .$$$%&&&&&$$$. ",
" X$$-$$$$$$$$$X ",
"X$$$>-$$$$$$$$$X",
".$$$>>>>>-$$$$$.",
".$$->>>>>>>>-$$.",
".$$;>.>>>>.>;$$.",
".$$;>o>>>>o>;$$.",
"o$$;##;;;;##;$$o",
"o.*XXXXOOXXXX*Xo",
" .=***.**.***=X ",
"X>X===X==X===X>X",
"X>;.X******X.;>X",
" X..@XXXXXX@..X ",
"   .,,,,,,,,.   ",
"   .,,OXXO,,.   ",
"   .++.  .++.   ",
"    ..    ..    "
};
