/* XPM */
static char *_1e59b23e2f34ff9b00afcc95aa538d7olEZOhBvFBFvBqxA[] = {
/* columns rows colors chars-per-pixel */
"32 32 192 2 ",
"   c None",
".  c #00244F",
"X  c #002445",
"o  c #0B334A",
"O  c #002A50",
"+  c #053653",
"@  c #103B59",
"#  c #103450",
"$  c #2C354F",
"%  c #243452",
"&  c #2B3551",
"*  c #233852",
"=  c #273F5A",
"-  c #2A3B5C",
";  c #323E5D",
":  c #363A53",
">  c #2C3E60",
",  c #573647",
"<  c #593A4B",
"1  c #433C57",
"2  c #453F5A",
"3  c #5C395C",
"4  c #7C3A43",
"5  c #3E404B",
"6  c #33465F",
"7  c #3C435F",
"8  c #3D495B",
"9  c #24496F",
"0  c #2F4468",
"q  c #324464",
"w  c #3C4461",
"e  c #3F5175",
"r  c #4F414C",
"t  c #59454D",
"y  c #41455E",
"u  c #4A475C",
"i  c #45485E",
"p  c #4A485C",
"a  c #4B4554",
"s  c #534552",
"d  c #554058",
"f  c #534A5D",
"g  c #5A4E5D",
"h  c #5E505D",
"j  c #69454C",
"k  c #644E4D",
"l  c #694E49",
"z  c #6F524C",
"x  c #70534C",
"c  c #7A5B4F",
"v  c #6F4F58",
"b  c #634955",
"n  c #70445D",
"m  c #734D5B",
"M  c #6F5551",
"N  c #6E5A5E",
"B  c #68565A",
"V  c #715654",
"C  c #7E5E53",
"Z  c #755B59",
"A  c #755F56",
"S  c #7E6354",
"D  c #796358",
"F  c #424660",
"G  c #434967",
"H  c #5E4960",
"J  c #44506F",
"K  c #575065",
"L  c #5F5262",
"P  c #5A596E",
"I  c #5E5568",
"U  c #4A5576",
"Y  c #4F5C7E",
"T  c #5B5D73",
"R  c #604261",
"E  c #6A4B64",
"W  c #644669",
"Q  c #7B4B6C",
"!  c #6C5B64",
"~  c #645763",
"^  c #725C65",
"/  c #635F70",
"(  c #79646E",
")  c #6D6371",
"_  c #776972",
"`  c #BD5E37",
"'  c #BD5F38",
"]  c #8C3D43",
"[  c #825F4C",
"{  c #81515F",
"}  c #9D5553",
"|  c #9C5C56",
" . c #AA5B44",
".. c #86624E",
"X. c #8D6C4F",
"o. c #89664F",
"O. c #936B4F",
"+. c #94724F",
"@. c #846154",
"#. c #8B6552",
"$. c #8D6952",
"%. c #9D6257",
"&. c #926D51",
"*. c #946B59",
"=. c #996F5D",
"-. c #8F7157",
";. c #957350",
":. c #997651",
">. c #9F7A54",
",. c #94745E",
"<. c #99715D",
"1. c #A3615E",
"2. c #A37C52",
"3. c #B57C55",
"4. c #B17F5C",
"5. c #844C6D",
"6. c #884D6F",
"7. c #865E66",
"8. c #9F506F",
"9. c #9D5A6A",
"0. c #8C4C71",
"q. c #934D72",
"w. c #8F5578",
"e. c #9D5272",
"r. c #A8576E",
"t. c #A7586E",
"y. c #A05170",
"u. c #AC5673",
"i. c #B25777",
"p. c #B65877",
"a. c #BC5E73",
"s. c #B45778",
"d. c #B95779",
"f. c #B8597A",
"g. c #B75A78",
"h. c #89636E",
"j. c #956663",
"k. c #956569",
"l. c #8E756A",
"z. c #957663",
"x. c #9B746C",
"c. c #9C7D6A",
"v. c #9F7461",
"b. c #977E7A",
"n. c #A66D6B",
"m. c #A37664",
"M. c #A67966",
"N. c #AC7F64",
"B. c #A3706C",
"V. c #AD736C",
"C. c #AB7D6D",
"Z. c #B17061",
"A. c #B07F60",
"S. c #B37A6E",
"D. c #BC7A6C",
"F. c #A77271",
"G. c #AE7772",
"H. c #AD7D71",
"J. c #BD7C73",
"K. c #C05F74",
"L. c #AB8358",
"P. c #AF8655",
"I. c #B98357",
"U. c #B4835A",
"Y. c #B8845A",
"T. c #B4895C",
"R. c #BA8D5E",
"E. c #BF905E",
"W. c #AF806F",
"Q. c #A88365",
"!. c #B78563",
"~. c #B2826F",
"^. c #B68C64",
"/. c #BE9060",
"(. c #B38373",
"). c #BB8475",
"_. c #BD8976",
"`. c #BB8875",
"'. c #BF8B78",
"]. c #BB8A79",
"[. c #C68655",
"{. c #CD8E56",
"}. c #C88E5C",
"|. c #C1915E",
" X c #C3925B",
".X c #D2955B",
"XX c #C18778",
"oX c #C08C79",
"OX c #C28D7A",
"+X c #C38D7A",
"@X c #C88F7A",
"#X c #C6907B",
/* pixels */
"                U Y U J w - ; ; ; ; 7 7 7 w G 7                 ",
"              / l.c.c.z.z.,.,.,.,.-.S A D A Z B p               ",
"            / b.^. X XE.|.|.|.|.|.R.2.+.+.;.&.#.^ p             ",
"        e _ Q.E.R.R.R.R.R.R.R.R./.T.>.+.;.;.;.&.$.C g 7         ",
"        0 ) ,.P.R./.R.R.R.R./.R.L.>.:.+.;.;.;.;.O.@.I >         ",
"        f N S ;.L.T.T.T.T.T.T.L.:.X.+.;.;.;.;.;.$.@.N f         ",
"    7 L C $.$.+.;.;.;.;.;.;.;.;.;.;.;.;.;.;.;.;.$.#.$.S L 7     ",
"    & g @.&.$.$.o.o.$.;.;.+.+.+.;.;.;.;.;.;.&.$.#.#.&.@.g &     ",
"    % g C $.#.#.*.*.$.$.$.&.&.&.&.&.&.&.;.&.#.#.#.#.$.C g %     ",
"    7 ~ @.$.#.*.M.M.*.#.#.#.#.#.#.#.#.#.#.#.#.#.#.#.$.@.~ 7     ",
"w g Z @.#.#...*.(.`.M.*.#.[ ..........#.#.#.#.#.#.#.#.#.@.Z g w ",
"w h @.&.$.#...=.`.OX`.C.M.v.m.m.m.v.=.*.#.....@.#.#.#.$.&.@.h w ",
"$ s C $.#.#...=.(.OXOXOXOXOXOXOXOX_.~.m.*.$.$.$.#.$.#.#.$.C s $ ",
"& s C $.#.$.<.C.`.OX+X+XOX'.'.OXOX'._.`._._.`.~.M.<.$.#.$.C s $ ",
"& s C $...*.M.(._.(.x.x.(.OX'.'.'.OXOX`.x.x.].OX(.M.*...$.C s & ",
"& s C $...*.V.).+XH.s s C.#XOX'.'.OX#XC.s s H.+X).V.*...$.C s & ",
"% s C $...*.V.).+X(.V M W.#XOXOXOXOX#XW.M V (.+X).V.*...$.C s % ",
"r k @.$...*.S.J.D.Z.| %.S.XX).).).).XXS.%.| Z.D.J.S.*...$.@.k r ",
"l x c @.#.j.B.n.| } } 1.n.F.F.F.F.F.F.n.1.} } | n.B.j.#.@.C x l ",
"z k 5 b e.e.E 8 p u u p f K P T T P K f p u u p 8 E e.e.E u k z ",
"    X 3 u.g.q.5.5.6.0.Q 1 2 Q w.w.Q 2 1 Q 0.6.5.5.q.p.u.W +     ",
"    B 7.9.u.i.s.s.s.f.y.d d 8.d.d.8.d d y.f.s.s.s.i.u.9.h.!     ",
"- ^ (.(.~ R r.K.a.a.a.t.H H t.K.K.t.H H t.a.a.a.K.r.R ~ (.(.^ - ",
"q ( ].@XH.k.{ n E 5.u.i.e.e.u.p.p.u.e.e.i.u.5.E n { k.H.@X].( 0 ",
"- ! x.(.G.j.a o t m 5.q.q.q.0.0.0.0.q.q.q.5.m t o a j.G.(.x.! - ",
"    y F : $ # j  . .v 6 i p p p p p p i 6 v  . .j # $ : F y     ",
"            O V 3.[.I.4.I.I.Y.Y.Y.Y.I.I.4.I.[.3.V O             ",
"            . Z Y..X.X}.!.N.A.4.4.A.N.!.}..X.XY.Z .             ",
"            . Z 3.{.{.U.( 9 q ; ; q 9 ( U.{.{.3.Z .             ",
"            + m  .' `  .m @         @ m  .` '  .m +             ",
"              < 4 ] ] 4 ,             , 4 ] ] 4 <               ",
"                * = = *                 * = = *                 "
};
