/* XPM */
static char *f8d675b8d91b4805ddda0df56e1fa07clPhx4syczUM9Yul8[] = {
/* columns rows colors chars-per-pixel */
"32 32 186 2 ",
"   c #3B3B51",
".  c #453E4F",
"X  c #433E51",
"o  c #4A3F57",
"O  c #523F59",
"+  c #58474C",
"@  c #59484D",
"#  c #474151",
"$  c #494351",
"%  c #4E4956",
"&  c #46465E",
"*  c #49475D",
"=  c #4E495C",
"-  c #594C52",
";  c #554159",
":  c #514D5D",
">  c #5D4E58",
",  c #59415B",
"<  c #5B545D",
"1  c #684E49",
"2  c #764242",
"3  c #744848",
"4  c #794A46",
"5  c #7E544C",
"6  c #74584F",
"7  c #634658",
"8  c #69455F",
"9  c #6D485E",
"0  c #624B56",
"q  c #704A5F",
"w  c #655151",
"e  c #6A5451",
"r  c #6D5C54",
"t  c #665359",
"y  c #6A5C5A",
"u  c #6D555B",
"i  c #725C54",
"p  c #7C5D52",
"a  c #765F5A",
"s  c #7E5758",
"d  c #6E605E",
"f  c #766255",
"g  c #75615B",
"h  c #7B635C",
"j  c #7F6354",
"k  c #4B4A61",
"l  c #524A61",
"z  c #5E4B62",
"x  c #5C4762",
"c  c #5B5564",
"v  c #52526A",
"b  c #585668",
"n  c #565362",
"m  c #565972",
"M  c #5A5A72",
"N  c #6E4662",
"B  c #614C64",
"V  c #6C4B68",
"C  c #734765",
"Z  c #734B66",
"A  c #7B4967",
"S  c #734C69",
"D  c #7B4D6B",
"F  c #665565",
"G  c #6A5667",
"H  c #675865",
"J  c #625D69",
"K  c #685F69",
"L  c #7C5167",
"P  c #725A64",
"I  c #66616D",
"U  c #6C626A",
"Y  c #746264",
"T  c #7A6464",
"R  c #736368",
"E  c #7E6569",
"W  c #666372",
"Q  c #6A6572",
"!  c #6F6870",
"~  c #6C6A7A",
"^  c #7D6370",
"/  c #746D75",
"(  c #796E77",
")  c #716E7B",
"_  c #777076",
"`  c #7B757C",
"'  c #AD573E",
"]  c #B1583E",
"[  c #805E4F",
"{  c #975C4E",
"}  c #865955",
"|  c #855659",
" . c #955B5A",
".. c #935955",
"X. c #A35641",
"o. c #846354",
"O. c #8A6552",
"+. c #846A53",
"@. c #8C6B52",
"#. c #846C5E",
"$. c #856559",
"%. c #906B53",
"&. c #996C5D",
"*. c #976254",
"=. c #8E7051",
"-. c #947350",
";. c #987553",
":. c #9D7953",
">. c #9A725C",
",. c #B76F4A",
"<. c #A6695E",
"1. c #A16B51",
"2. c #A47E56",
"3. c #824A6A",
"4. c #81576E",
"5. c #89506D",
"6. c #91556B",
"7. c #845B72",
"8. c #9D5173",
"9. c #A5576D",
"0. c #A7596F",
"q. c #AD5676",
"w. c #AE5C71",
"e. c #A35473",
"r. c #B85D72",
"t. c #B05D72",
"y. c #8E6D69",
"u. c #9C6D62",
"i. c #9B6C6C",
"p. c #996463",
"a. c #8A7466",
"s. c #84746F",
"d. c #957861",
"f. c #95716A",
"g. c #9E7568",
"h. c #826D72",
"j. c #877075",
"k. c #877876",
"l. c #887876",
"z. c #81797E",
"x. c #A66B60",
"c. c #A37265",
"v. c #A1706E",
"b. c #AC756B",
"n. c #AF7A6D",
"m. c #B77B6E",
"M. c #B3756A",
"N. c #AB7473",
"B. c #AA7D72",
"V. c #B47C72",
"C. c #BA7D75",
"Z. c #A88057",
"A. c #A78158",
"S. c #AD8459",
"D. c #BE8557",
"F. c #B1855A",
"G. c #B58A5D",
"H. c #BA8D5E",
"J. c #8E817F",
"K. c #B3816F",
"L. c #AE8277",
"P. c #B58575",
"I. c #BB8475",
"U. c #BE8977",
"Y. c #BF8B78",
"T. c #C38656",
"R. c #7C7781",
"E. c #857D82",
"W. c #8B8285",
"Q. c #8D8385",
"!. c #8D8588",
"~. c #8B8489",
"^. c #918788",
"/. c #958B8B",
"(. c #978D8C",
"). c #978E8D",
"_. c #968C8B",
"`. c #988E8D",
"'. c #9A8E8E",
"]. c #988E8D",
"[. c #9A908F",
"{. c #99908F",
"}. c #9A908F",
"|. c #9B9190",
" X c #9D9291",
".X c #9C9190",
/* pixels */
"[.`.`.[.(.[.` b & & & & & & & & & k v m m m ~ ~.`.`.[.(.[.`.(.`.",
"[.(.`.[.z.) U d g h #.#.#.#.#.#.#.#.a.a.a.a.s.` R.!.|./.[.`.`. X",
"[./.!.E.! < y +.:.S.H.H.H.H.H.H.H.H.H.H.G.F.d.R Q ` !.!.[.`.`. X",
"[.!.Q k y +.@.-.:.S.H.H.H.H.H.H.H.H.H.H.A.-.@.O.h U W R.(.`.(.`.",
"|.W.Q * y @.-.-.;.:.2.F.H.H.H.G.Z.2.2.2.;.@.O.O.o.h Y U Q ` ^. X",
"E.` U < f =.-.-.-.-.-.2.S.F.F.Z.:.-.-.-.%.O.O.O.O.O.o.t * W W.`.",
"k : r @.-.-.-.-.-.-.-.-.-.-.-.-.-.-.-.-.%.O.O.O.O.O.o.t * W W. X",
"  % i -.-.-.-.-.-.-.-.-.-.-.-.-.-.-.-.-.@.O.O.O.O.O.O.j f d J I ",
"  $ i -.-.-.-.-.-.-.-.-.-.-.-.-.-.-.%.@.O.O.O.O.O.O.O.@.=.i : & ",
"  $ i -.-.-.-.-.-.-.-.-.-.-.-.-.-.-.@.O.O.O.O.O.O.O.O.@.=.i : & ",
"  $ i -.-.-.-.-.-.-.-.-.-.-.-.-.-.@.@.O.O.O.O.O.%.u.c.>.=.i : & ",
"  $ r -.-.-.-.-.-.-.-.-.-.-.-.-.@.@.O.O.O.O.%.&.c.n.V.f.h R U Q ",
"  # r @.-.-.-.-.-.-.-.-.-.-.@.@.O.O.O.O.@.@.u.b.C.U.P.j.M ) !. X",
"  # e O.%.-.-.-.-.-.=.@.@.@.O.O.O.O.u.b.n.K.P.I.U.Y.P.j.M ) !.`.",
"  # e O.@.@.%.%.@.@.O.O.O.O.O.%.&.c.n.I.U.Y.B.y.y.B.P.h.v ~ ~. X",
"  # e O.O.O.O.O.O.O.O.O.O.O.%.&.b.C.U.Y.Y.Y.f.> > f.P.E * W W.`.",
"  # e O.O.O.O.O.O.O.O.O.O.&.b.V.I.U.Y.Y.Y.Y.g.i i g.P.T X J W.`.",
"  # e O.O.O.O.O.O.O.O.*.*.x.M.V.C.I.I.I.m.M.<...} s Y R ! ` ^. X",
"  # e O.O.O.O.O.o.p p } .. .p.i.i.i.i.i.p. . . .| t n / (.`.(.`.",
"  # e O.O.O.O.O.p - X X X X # # # # = l : = = = c _ ^.^.`.(.`. X",
"+ @ 6 O.O.O.p w 0 q C ,   ; C A A C x * B D V l b ` [.(.[.`.`.[.",
"g a p [ [ [ w $ O 3.8.N   8 8.q.q.8.S * S e.5.x b ` [.(.[.`.(.`.",
"`.Q.T 1 1 1 + . O 3.8.N   9 9.r.r.0.Z * L w.6.x b ` |./.[.`.`. X",
"[./.J.k.l.k.U % O 3.8.Z & P N.C.C.N.^ v 4.w.6.x b ` `.`.`.`.(.`.",
"|.(.`.|./.|._ = O 3.8.S * R B.U.U.L.h.M 7.t.6.x b ` |./.[.`.`. X",
"[.(.`.[._.|._ : ; 3.8.S * P v.V.I.L.h.M 7.w.6.B b ` |._.`.`.`. X",
"`.`.`.`.`.`.!.E./ F ; o   = c F H P } { s 7 G ( E.^.`.`.`.(.`.`.",
"[._.`.|./.|.(._.E.c   - i a h h h $.1.,.5 . c E._.(.|./.[.`.`. X",
"[.(.`.`.(.`.`.(.E.c # o.T.T.T.T.T.T.D.F.$.% J E.`.`.`._.`.`.(.`.",
"[.(.`.[.(.[.`.(.E.c . 4 ' ] ] ] ] X.5 - U z.W.(.`.`.[.(.`.`.(.[.",
"[.(.`.[._.[.`.(.!._ K u 2 2 2 2 2 3 u I ` /.(.[.`.`.[._.`.`.`.[.",
"`.`.`.`.`.`.`.`.`.`.!.I           * / `.`.`.`.`.`.`.`.`.`.`.`.`."
};
