/* XPM */
static char *_7604c98219d41e898af388a942b18b05nSPG7DFxOwKsv9t[] = {
/* columns rows colors chars-per-pixel */
"32 32 138 2 ",
"   c #3B3B50",
".  c #443E4E",
"X  c #443F51",
"o  c #47404E",
"O  c #59434C",
"+  c #55484F",
"@  c #5D494C",
"#  c #444256",
"$  c #4E4551",
"%  c #46465D",
"&  c #49475D",
"*  c #4B495B",
"=  c #524655",
"-  c #534A55",
";  c #5D4B53",
":  c #56465D",
">  c #524F5F",
",  c #5C4E5A",
"<  c #5C535D",
"1  c #654C4A",
"2  c #764242",
"3  c #724A4D",
"4  c #6D524C",
"5  c #644D56",
"6  c #724E5A",
"7  c #675351",
"8  c #65555A",
"9  c #685458",
"0  c #675958",
"q  c #6A5B58",
"w  c #755B52",
"e  c #7C5E52",
"r  c #705C5B",
"t  c #796151",
"y  c #73615C",
"u  c #7F685C",
"i  c #4D4C61",
"p  c #555262",
"a  c #5F5761",
"s  c #5B5866",
"d  c #52546D",
"f  c #5A5769",
"g  c #5D5A6B",
"h  c #565972",
"j  c #764A65",
"k  c #7E4D64",
"l  c #645764",
"z  c #645C64",
"x  c #6A5A63",
"c  c #605D6D",
"v  c #775961",
"b  c #7A5B60",
"n  c #64606F",
"m  c #6C636D",
"M  c #796A67",
"N  c #6D6771",
"B  c #676779",
"V  c #6B6A7B",
"C  c #736D76",
"Z  c #787077",
"A  c #77717A",
"S  c #7C757B",
"D  c #B1583E",
"F  c #87544C",
"G  c #945343",
"H  c #9B5947",
"J  c #945748",
"K  c #945B4B",
"L  c #805F50",
"P  c #825E5F",
"I  c #AB5C41",
"U  c #9B634B",
"Y  c #836554",
"T  c #8A6552",
"R  c #856A54",
"E  c #8C6B51",
"W  c #846C5E",
"Q  c #926F51",
"!  c #8F7151",
"~  c #957350",
"^  c #997651",
"/  c #9C7854",
"(  c #AE6A4A",
")  c #BB714A",
"_  c #A37556",
"`  c #A27C55",
"'  c #854E6C",
"]  c #8E4F68",
"[  c #8C6667",
"{  c #866E60",
"}  c #856A6A",
"|  c #906C69",
" . c #986D6B",
".. c #8A7466",
"X. c #86746E",
"o. c #9C766D",
"O. c #81797E",
"+. c #9E7870",
"@. c #A37269",
"#. c #A67A6B",
"$. c #A17A71",
"%. c #AB8259",
"&. c #B1865A",
"*. c #B5895C",
"=. c #BA8D5E",
"-. c #A48161",
";. c #B48274",
":. c #C48656",
">. c #7E7982",
",. c #847D82",
"<. c #878186",
"1. c #8B8385",
"2. c #8B8488",
"3. c #918789",
"4. c #958B8A",
"5. c #968C8B",
"6. c #928A8C",
"7. c #958C8C",
"8. c #968D8C",
"9. c #978D8C",
"0. c #968D8D",
"q. c #978E8D",
"w. c #948B8A",
"e. c #988D8C",
"r. c #988E8D",
"t. c #998E8D",
"y. c #998F8D",
"u. c #9A8E8D",
"i. c #998F8E",
"p. c #9A8E8E",
"a. c #9A8F8E",
"s. c #988E8C",
"d. c #9A918E",
"f. c #9A908F",
"g. c #9A908E",
"h. c #9B9190",
"j. c #9C9190",
"k. c #9D9291",
/* pixels */
"f.r.r.f.9.f.r.<.B h h d i % % % % % % % % % % f ,.r.f.9.f.r.9.r.",
"f.9.r.h.4.6.>.A X.......{ W W W W W W u y r r y m A 3.4.f.r.r.k.",
"f.r.r.9.2.,.N M -.=.=.=.=.=.=.=.=.=.*.%./ ~ ~ R 0 z S <.9.r.r.k.",
"f.r.r.2.V m W / %.=.=.=.=.=.=.=.=.&.` ^ ~ ~ ~ ~ ! u < c ,.r.9.r.",
"h.5.r.<.g a R ^ ` %.*.=.=.*.%.` ` ` ^ ~ ~ ~ ~ ~ ~ R < f ,.r.r.k.",
"r.6.,.Z z q R ~ ~ / %.&.&.%./ ~ ~ ~ ~ ~ ~ ~ ~ ~ ~ R q z Z ,.6.r.",
"f.,.g < Y ~ ~ ~ ~ ~ ~ ~ ~ ~ ~ ~ ~ ~ ~ ~ ~ ~ ~ ~ ~ ~ ~ Y < g ,.k.",
"f.O.p - t ~ ~ ~ ~ ~ ~ ~ ~ ~ ~ ~ ~ ~ ~ ~ ~ ~ ~ ~ ~ ~ ~ t - p O.k.",
"f.O.p - t E ~ ~ ~ ~ ~ ~ ~ ~ ~ ~ ~ ~ ~ ~ ~ ~ ~ ~ ~ ~ E t - p O.r.",
"9.O.f , e E Q ~ ~ ~ ~ ~ ~ ~ ~ ~ ~ ~ ~ ~ ~ ~ ~ ~ ~ Q E e , f ,.f.",
"g z r e Y T E E E ! ! ! ! ! ! ! ! ! ! ! ! ! ! E E E T Y e r z g ",
"# - e T T T T T E E E E E E E E E E E E E E E E T T T T T e - # ",
"  $ w T T T T T T T T T T T T T T T T T T T T T T T T T T w $   ",
"  $ w T T T T T T T T T T T T T T T T T T T T T T T T T T w $   ",
"  $ w T T T T T T T T T T T T T T T T T T T T T T T T T T w $   ",
"  $ w T T T T T T T T T T T T T T T T T T T T T T T T T T w $   ",
"  $ w T T T T T T T T T T T T T T T T T T T T T T T T T T w $   ",
"  $ w T T T T T T T T T T T T T T T T T T T T T T T T T T w $   ",
". + w T T T T T T T T T T T T T T T T T T T T T T T T T T w + . ",
"1 4 L T T T T T T T T T T T T T T T T T T T T T T T T T T L 4 1 ",
"1 1 @ 7 t E T T E E T T E E T T E E T T E E T T E E T e 7 @ 1 1 ",
"@ @ , 8 w t e e t t e e t t e e t t e e t t e e t t e w 9 , ; @ ",
"  , o.o., o @ @ o o @ @ o o @ @ o o @ @ o o @ @ o o @ e #.+.l % ",
"  , o.;. .b ; $ # : k ] ' ' ] ] ' ' ] ] ' j , $ X = P @.;.$.l % ",
"s x } | [ v $ X ; 6 ' ' ' ' ' ' ' ' ' ' ' ' 6 ; X $ v [ | } m n ",
"f.O.p         O G H 5 & & & & & & & & & & 5 H G O         p O.k.",
"r.6.,.S S N * O G I H J J J J J J J J J J H I G O * N S S O.3.r.",
"f.5.r.h.4.,.> @ U ) ) ( K F F F F F F K ( ) ) U @ > ,.4.f.r.r.k.",
"f.9.r.r.9.O.> ; _ :.:._ 8 % i i i i % 8 _ :.:._ ; > O.5.r.r.9.r.",
"f.9.r.f.9.O.> O G D D G O i C ,.,.C i O G D D G O > O.9.r.r.9.f.",
"f.9.r.f.5.2.C x 3 2 2 3 x C 1.r.r.1.C x 3 2 2 3 x C 2.5.r.r.r.f.",
"r.r.r.r.r.r.r.O.>     > O.r.r.r.r.r.r.O.>     > O.r.r.r.r.r.r.r."
};
