/* XPM */
static char *_ad13a88a9764e8aa3dca3777753df448QY0bXIIgstgrpkl[] = {
/* columns rows colors chars-per-pixel */
"32 32 187 2 ",
"   c #3B3B51",
".  c #453E4F",
"X  c #433E51",
"o  c #4A3F57",
"O  c #523F59",
"+  c #58474C",
"@  c #59484D",
"#  c #464151",
"$  c #494351",
"%  c #4E4956",
"&  c #46465E",
"*  c #49475D",
"=  c #4E495C",
"-  c #594C52",
";  c #554159",
":  c #514D5D",
">  c #5D4E58",
",  c #59415B",
"<  c #5B545D",
"1  c #684E49",
"2  c #764242",
"3  c #744848",
"4  c #794A46",
"5  c #7E544C",
"6  c #74584F",
"7  c #634658",
"8  c #69455F",
"9  c #6D485E",
"0  c #624B56",
"q  c #704A5F",
"w  c #655151",
"e  c #6A5451",
"r  c #6D5C54",
"t  c #665359",
"y  c #695C5A",
"u  c #6D565C",
"i  c #725C54",
"p  c #7C5D52",
"a  c #765F5A",
"s  c #7E5758",
"d  c #6E605E",
"f  c #766255",
"g  c #75615A",
"h  c #7B635C",
"j  c #7F6354",
"k  c #4B4A61",
"l  c #524A61",
"z  c #5E4B62",
"x  c #5C4762",
"c  c #4F516A",
"v  c #5B5564",
"b  c #53536A",
"n  c #585668",
"m  c #565362",
"M  c #565972",
"N  c #5A5A72",
"B  c #6E4662",
"V  c #614C64",
"C  c #6C4B68",
"Z  c #734765",
"A  c #734B66",
"S  c #7B4967",
"D  c #734C69",
"F  c #7B4D6B",
"G  c #665566",
"H  c #675865",
"J  c #625D69",
"K  c #685F69",
"L  c #6A5666",
"P  c #7C5167",
"I  c #725A64",
"U  c #65616D",
"Y  c #6C626A",
"T  c #746264",
"R  c #7A6464",
"E  c #736368",
"W  c #7E6569",
"Q  c #666372",
"!  c #6B6572",
"~  c #6E6871",
"^  c #6D6B7A",
"/  c #7D6370",
"(  c #746D75",
")  c #796E77",
"_  c #716E7B",
"`  c #777077",
"'  c #7C747C",
"]  c #AD573E",
"[  c #B1583E",
"{  c #805E4F",
"}  c #975C4E",
"|  c #865955",
" . c #855659",
".. c #955B5A",
"X. c #935955",
"o. c #A35641",
"O. c #846354",
"+. c #8A6552",
"@. c #846A53",
"#. c #8C6B52",
"$. c #846C5E",
"%. c #856559",
"&. c #906B53",
"*. c #996C5D",
"=. c #976254",
"-. c #8E7051",
";. c #947350",
":. c #987553",
">. c #9D7953",
",. c #9A725C",
"<. c #B76F4A",
"1. c #A6695E",
"2. c #A16B51",
"3. c #A47E56",
"4. c #824A6A",
"5. c #81576E",
"6. c #89506D",
"7. c #91556B",
"8. c #845B72",
"9. c #9D5173",
"0. c #A5576D",
"q. c #A7596F",
"w. c #AD5676",
"e. c #AE5C71",
"r. c #A35473",
"t. c #B85D72",
"y. c #B05D72",
"u. c #8E6D69",
"i. c #9C6D62",
"p. c #9B6C6C",
"a. c #996463",
"s. c #8A7466",
"d. c #84746F",
"f. c #957861",
"g. c #95716A",
"h. c #9E7568",
"j. c #826D72",
"k. c #877075",
"l. c #877876",
"z. c #887876",
"x. c #81797E",
"c. c #A66B60",
"v. c #A37265",
"b. c #A1706E",
"n. c #AC756B",
"m. c #AF7A6D",
"M. c #B77B6E",
"N. c #B3756A",
"B. c #AB7473",
"V. c #AA7D72",
"C. c #B47C72",
"Z. c #BA7D75",
"A. c #A88057",
"S. c #A78158",
"D. c #AD8459",
"F. c #BE8557",
"G. c #B1855A",
"H. c #B58A5D",
"J. c #BA8D5E",
"K. c #8E817F",
"L. c #B3816F",
"P. c #AE8277",
"I. c #B58575",
"U. c #BB8475",
"Y. c #BE8977",
"T. c #BF8B78",
"R. c #C38656",
"E. c #7C7781",
"W. c #7C7882",
"Q. c #857D82",
"!. c #8B8285",
"~. c #8E8587",
"^. c #8D8384",
"/. c #8D8589",
"(. c #8D8589",
"). c #908788",
"_. c #978D8C",
"`. c #968C8B",
"'. c #988E8D",
"]. c #998F8E",
"[. c #988E8D",
"{. c #9A908F",
"}. c #99908F",
"|. c #9A908F",
" X c #9B9190",
".X c #9C9190",
"XX c #9B9190",
/* pixels */
"{.'.'.{._.{.'.'./.^ M M M c k & & & & & & & & & n ' {._.{.'._.'.",
"{._.'. X`. X/.E.' d.s.s.s.s.$.$.$.$.$.$.$.$.h g d Y _ x.'.'.'..X",
"{.'.'.{.)./.' ! E f.G.H.J.J.J.J.J.J.J.J.J.J.D.>.@.y < ~ Q.~.`..X",
"{.'.'._.W.Q Y h +.#.:.S.J.J.J.J.J.J.J.J.J.J.D.>.;.#.@.y k ! !.'.",
" X~.' ! Y T h O.+.+.#.:.3.3.3.A.H.J.J.J.G.3.>.:.;.;.#.y * Q !..X",
"'.!.Q * t O.+.+.+.+.+.&.;.;.;.>.A.G.G.D.3.:.;.;.;.;.-.f < Y ` Q.",
"{.!.Q * t O.+.+.+.+.+.&.;.;.;.;.:.:.:.:.;.;.;.;.;.;.;.;.#.r : k ",
"U J d f j +.+.+.+.+.+.#.;.;.;.;.;.;.;.;.;.;.;.;.;.;.;.;.;.i $   ",
"& : i -.#.+.+.+.+.+.+.+.#.&.;.;.;.;.;.;.;.;.;.;.;.;.;.;.;.i $   ",
"& : i -.#.+.+.+.+.+.+.+.+.#.;.;.;.;.;.;.;.;.;.;.;.;.;.;.;.i $   ",
"& : i -.,.v.i.&.+.+.+.+.+.#.#.;.;.;.;.;.;.;.;.;.;.;.;.;.;.i $   ",
"! U E h g.C.m.v.*.&.+.+.+.+.#.#.;.;.;.;.;.;.;.;.;.;.;.;.;.r $   ",
"{./._ N k.I.U.Z.n.i.#.#.#.#.+.+.#.#.;.;.;.;.;.;.;.;.;.;.#.r #   ",
"{./._ N k.I.T.Y.U.I.L.m.n.i.#.+.+.+.#.#.#.-.;.;.;.;.;.&.+.e #   ",
" X!.^ b j.I.V.u.u.V.T.U.U.m.v.*.&.+.+.+.+.+.#.#.&.&.#.#.+.e #   ",
"{.!.Q * W I.g.> > g.T.T.T.U.Z.n.*.&.#.+.+.+.+.+.+.+.+.+.+.e #   ",
"'.!.J X R I.h.i i h.T.T.T.T.Y.U.C.n.*.+.+.+.+.+.+.+.+.+.+.e #   ",
"{.~.' ~ E T s | X.1.N.M.U.U.U.Z.C.N.c.=.=.+.+.+.+.+.+.+.+.e #   ",
"{.'.'._.) m t  .......a.p.p.p.p.p.a...X.| p p O.+.+.+.+.+.e #   ",
"{._.'.{.).).` v = = = : l * # # # # X X X X - p +.+.+.+.+.e #   ",
"{._.'.{._.{.' n l C F V * x Z S S Z ;   , Z q 0 w p +.+.+.6 @ + ",
"{._.'.{._.{.' n z 6.r.D * D 9.w.w.9.8   B 9.4.O $ e { { { p a g ",
"{._.'. X`. X' n z 7.e.P * A q.t.t.0.9   B 9.4.O . + 1 1 1 R ^.{.",
"{.'.'.'.'.'.' n z 7.e.5.b / B.Z.Z.B.I & Z 9.4.O % Y l.l.z.K.`.'.",
" X_.'. X`. X' n z 7.y.8.N j.P.Y.U.V.E * D 9.4.O = `  X`.{.'.'..X",
"{._.'.{.`. X' n V 7.e.8.N j.P.U.C.b.I * D 9.4.; : `  X`.'.'.'..X",
"'.'.'.'.'.'.).Q.) L 7 s } | I H G v *   o ; G ( Q.).'.'.'._.'.'.",
"{.`.'. X`. X_.`.Q.v . 5 <.2.%.h h h a i -   v Q.`._. X`.{.'.'..X",
"{._.'.'._.'.'._.Q.J % %.G.F.R.R.R.R.R.R.O.# v Q.'.'.'.`.'.'._.'.",
"{._.'.{._.{.'._.`.!.x.Y - 5 o.[ [ [ [ ] 4 . v Q.'.'.{._.'.'._.{.",
"{._.'.{.`.{.'._.'.`.`.' U u 3 2 2 2 2 2 e K ` /.'.'.{.`.'.'.'.{.",
"'.'.'.'.'.'.'.'.'.'.'.'.'.( *           U ~.'.'.'.'.'.'.'.'.'.'."
};
