/* XPM */
static char *_d3598d872c4460ef848c6b2ba77609cELesaKLMHII49Fd1[] = {
/* columns rows colors chars-per-pixel */
"32 32 173 2 ",
"   c #3A3A50",
".  c #433F53",
"X  c #4B424E",
"o  c #52444C",
"O  c #58434C",
"+  c #5E494B",
"@  c #4E4551",
"#  c #45455D",
"$  c #4F435B",
"%  c #4B485D",
"&  c #5C4751",
"*  c #524955",
"=  c #5D4C52",
"-  c #51455E",
";  c #59435B",
":  c #514D5E",
">  c #594E5B",
",  c #5A515D",
"<  c #644D4B",
"1  c #764242",
"2  c #724A4D",
"3  c #6C514C",
"4  c #74584F",
"5  c #644E56",
"6  c #68485E",
"7  c #724E5A",
"8  c #6D5C57",
"9  c #635259",
"0  c #765A52",
"q  c #7A5C55",
"w  c #705C5B",
"e  c #7F6154",
"r  c #756158",
"t  c #7F685C",
"y  c #4C4C63",
"u  c #544F64",
"i  c #545163",
"p  c #52536C",
"a  c #5A5769",
"s  c #5C5A6B",
"d  c #565972",
"f  c #5F5C72",
"g  c #634C64",
"h  c #6C4C63",
"j  c #704C64",
"k  c #655765",
"l  c #6E5260",
"z  c #635A65",
"x  c #6A5A62",
"c  c #605D6D",
"v  c #765963",
"b  c #75506D",
"n  c #7E5069",
"m  c #64606F",
"M  c #6E636D",
"N  c #706369",
"B  c #73696E",
"V  c #7F6F6A",
"C  c #6D6771",
"Z  c #676779",
"A  c #6B6A7B",
"S  c #746D76",
"D  c #786F76",
"F  c #777077",
"G  c #77717A",
"H  c #7B737A",
"J  c #7E787D",
"K  c #B1583E",
"L  c #945343",
"P  c #995A47",
"I  c #805F56",
"U  c #955D55",
"Y  c #955C5B",
"T  c #856353",
"R  c #8A6552",
"E  c #806853",
"W  c #8E6A52",
"Q  c #8B6059",
"!  c #846C5E",
"~  c #916D52",
"^  c #95635C",
"/  c #956B5A",
"(  c #986F5C",
")  c #8F7151",
"_  c #8B705A",
"`  c #957350",
"'  c #997651",
"]  c #9D7953",
"[  c #94715C",
"{  c #9A715E",
"}  c #A06E51",
"|  c #A37455",
" . c #A27A56",
".. c #A3785A",
"X. c #A97A5A",
"o. c #BA7D54",
"O. c #834F6D",
"+. c #8C4F6B",
"@. c #855F67",
"#. c #8D536D",
"$. c #92516E",
"%. c #9D576E",
"&. c #875575",
"*. c #905170",
"=. c #9E5471",
"-. c #A55573",
";. c #AC5675",
":. c #B85D72",
">. c #866E60",
",. c #8D6768",
"<. c #886E6F",
"1. c #916F6B",
"2. c #9C6B6A",
"3. c #8A7466",
"4. c #86746E",
"5. c #977561",
"6. c #9D7360",
"7. c #9B706E",
"8. c #9C7D65",
"9. c #867572",
"0. c #81797E",
"q. c #9F7171",
"w. c #9F7871",
"e. c #AA6C60",
"r. c #A27563",
"t. c #A57A64",
"y. c #A0776E",
"u. c #AB756B",
"i. c #A77B6D",
"p. c #AD7E6B",
"a. c #B47569",
"s. c #B47B6F",
"d. c #A07272",
"f. c #A17A72",
"g. c #B77D73",
"h. c #B87E74",
"j. c #A78058",
"k. c #AA8158",
"l. c #B0865A",
"z. c #BC875C",
"x. c #B4895D",
"c. c #BA8D5E",
"v. c #A68362",
"b. c #B2826F",
"n. c #AF8273",
"m. c #B48372",
"M. c #BB8475",
"N. c #BC8976",
"B. c #BF8B78",
"V. c #C48656",
"C. c #C78C59",
"Z. c #7E7982",
"A. c #847D82",
"S. c #878186",
"D. c #8B8385",
"F. c #8B8488",
"G. c #908789",
"H. c #92898A",
"J. c #958B8A",
"K. c #978D8C",
"L. c #968D8D",
"P. c #968C8B",
"I. c #988D8C",
"U. c #988E8D",
"Y. c #998F8E",
"T. c #9A8F8E",
"R. c #988E8D",
"E. c #9A908F",
"W. c #9A908F",
"Q. c #9B9190",
"!. c #9C9190",
"~. c #9D9291",
"^. c #9C9190",
/* pixels */
"E.U.U.E.K.E.U.S.Z d d p y # # # # # # # # # # a A.U.E.K.E.U.K.U.",
"E.K.U.Q.J.H.Z.H 4.3.3.3.>.! ! ! ! t r 8 8 8 8 x M G G.J.E.U.U.~.",
"E.U.U.K.F.A.S V v.c.c.c.c.c.c.c.c.l.] ` ` W W e 9 z H S.K.U.U.~.",
"E.U.U.F.A B 8.x.c.c.c.c.c.c.c.c.c.l.] ` ` ` ` ~ R q , c A.U.K.U.",
"Q.P.U.S.s z _ j.x.c.c.c.c.c.c.x.k. .' ` ` ` ` ~ W q > a A.U.U.~.",
"U.H.A.F z 9 E ' j.k.l.l.l.l.l.k.] ` ` ` ` ` ` ~ W q 9 z S A.H.U.",
"E.A.s , q R W ) ` ' ' ' ' ' ' ' ` ` ` ` ` ` ` ~ W R R q , s A.~.",
"E.0.i * 0 R R W W W W ` ` ` ` ` ` ` ` ` ` ` ~ W R R R 0 * i 0.~.",
"E.0.i * 0 R R R / / W W W ~ ~ ~ ~ ~ ~ ~ ~ W R R R R R 0 * i 0.U.",
"K.0.a > q R R / r.r./ R R R R R R R R R R R R R R R R q > a A.E.",
"s z w q T R R / p.b.t.{ W R R R R R R R R R R R R R R T q w z s ",
"# * q R R R R ( b.N.m.p.t.r.r.r.r.6.( / R R R R R R R R R q * # ",
"  @ 0 R R R R { b.B.B.B.B.B.B.B.B.N.p.r./ W W W R R R R R 0 @   ",
"  @ 0 R R / { i.m.B.B.B.B.B.B.B.B.B.N.M.m.m.m.p.t.{ / R R 0 @   ",
"  @ 0 R R / r.s.N.n.1.1.n.B.B.B.B.B.B.n.1.1.n.N.s.r./ R R 0 @   ",
"  @ 0 R R / u.h.N.y.9 9 y.B.B.B.B.B.B.y.9 9 y.N.g.u./ R R 0 @   ",
"  @ 0 R R / u.h.N.i.q q i.B.B.B.B.B.B.i.q q i.N.g.u./ R R 0 @   ",
"o < q R R / u.s.a.e.U ^ u.M.M.M.M.M.M.u.^ U e.a.s.u./ R R q < o ",
"< 3 4 q Q ^ 2.2.Y Y Y Y 2.2.q.d.d.q.2.2.Y Y Y Y 2.2.^ Q I 0 3 < ",
"< + X ; +.$.g : : % % : : u s f f s u : : % % : : g $.#.g * < < ",
"9.N % ; $.-.#.O.O.O.O.j - - b &.&.b - $ j O.O.O.O.#.-.$.g i B 9.",
"A.D x l #.%.-.;.;.;.;.$.; ; $.;.;.$.; ; $.;.;.;.;.-.%.#.v M H A.",
"y k w.w.k g %.:.:.:.:.%.g g %.:.:.%.g g %.:.:.:.:.%.g k w.w.k y ",
"# k f.m.7.@.j 6 h n =.-.*.*.-.;.;.-.*.*.-.=.n h 6 j @.7.m.f.k # ",
"m M <.1.,.v @ . = 7 O.O.O.O.O.O.O.O.O.O.O.O.7 = . @ v ,.1.<.M m ",
"E.A.s # .     O L P 5 % % % % % % % % % % 5 P L O     . # s A.~.",
"U.H.A.0.J C % = } o.X.....................X.o.} = % C J 0.A.H.U.",
"E.P.U.Q.J.A.: =  .C.C.z.t.5.[ [ [ [ 5.t.z.C.C...= : A.J.E.U.U.~.",
"E.K.U.U.K.0.: = | V.V.X.N p y y y y p N X.V.V.| = : 0.P.U.U.K.U.",
"E.K.U.E.K.0.: O L K K L & i S A.A.S i & L K K L O : 0.K.U.U.K.E.",
"E.K.U.E.P.F.S x 2 1 1 2 x S D.U.U.D.S x 2 1 1 2 x S F.P.U.U.U.E.",
"U.U.U.U.U.U.U.0.:     : 0.U.U.U.U.U.U.0.:     : 0.U.U.U.U.U.U.U."
};
