/* XPM */
static char *e8ce2ab0c4844274fba01fdf3d513c435nwhU50GHhiF0RSm[] = {
/* columns rows colors chars-per-pixel */
"32 32 235 2 ",
"   c None",
".  c black",
"X  c #040400",
"o  c #060600",
"O  c #070703",
"+  c #040404",
"@  c #090900",
"#  c #0B0B00",
"$  c #0D0D00",
"%  c #090909",
"&  c gray4",
"*  c gray5",
"=  c gray6",
"-  c #101000",
";  c #121200",
":  c #060613",
">  c #09091A",
",  c #121219",
"<  c #181818",
"1  c #1A1A18",
"2  c gray10",
"3  c #1D1D1D",
"4  c #202000",
"5  c #222200",
"6  c #0B0B23",
"7  c #1D1D23",
"8  c #181825",
"9  c gray14",
"0  c gray15",
"q  c #272727",
"w  c gray16",
"e  c #2A2A2B",
"r  c #2D2D31",
"t  c #313131",
"y  c #323233",
"u  c gray21",
"i  c gray22",
"p  c #3A3A3A",
"a  c #3C3C3C",
"s  c gray24",
"d  c #3E3E3E",
"f  c #3F3F3F",
"g  c #41413B",
"h  c #1A1A49",
"j  c #000051",
"k  c #000058",
"l  c #00005B",
"z  c #00005C",
"x  c #00005E",
"c  c #00006A",
"v  c #01016E",
"b  c #010171",
"n  c #030370",
"m  c gray25",
"M  c #414141",
"N  c gray26",
"B  c #434343",
"V  c #464646",
"C  c gray28",
"Z  c #47474B",
"A  c #484848",
"S  c #494949",
"D  c gray29",
"F  c gray30",
"G  c #4E4E4E",
"H  c gray31",
"J  c #59594A",
"K  c #505050",
"L  c #515151",
"P  c gray32",
"I  c gray33",
"U  c #555555",
"Y  c #565656",
"T  c gray34",
"R  c gray35",
"E  c #5A5A5A",
"W  c #5B5B5B",
"Q  c #5D5D5D",
"!  c gray37",
"~  c #5F5F5F",
"^  c gray39",
"/  c #646464",
"(  c #656565",
")  c #676767",
"_  c #6A6A6A",
"`  c #6C6C6C",
"'  c #6D6D6D",
"]  c gray43",
"[  c #6F6F6F",
"{  c #727266",
"}  c gray44",
"|  c #717171",
" . c #727272",
".. c gray45",
"X. c #747474",
"o. c #777777",
"O. c gray47",
"+. c #797979",
"@. c gray48",
"#. c #7B7B7B",
"$. c #7C7C7C",
"%. c #7E7E7E",
"&. c gray50",
"*. c #88887E",
"=. c #000087",
"-. c #020289",
";. c #020297",
":. c #00009C",
">. c #0000A6",
",. c #0000AC",
"<. c #1818D6",
"1. c #0000E2",
"2. c #0000E4",
"3. c #0F0FE7",
"4. c #0C0CE8",
"5. c #0E0EEE",
"6. c #1D1DE4",
"7. c #1D1DE6",
"8. c #808080",
"9. c #818181",
"0. c gray51",
"q. c #838383",
"w. c #848484",
"e. c gray52",
"r. c #868686",
"t. c gray53",
"y. c #888888",
"u. c gray54",
"i. c #8B8B8B",
"p. c #8B8B8C",
"a. c gray55",
"s. c #8D8D8D",
"d. c #8E8E8E",
"f. c gray56",
"g. c gray57",
"h. c #929292",
"j. c #939393",
"k. c gray58",
"l. c #959595",
"z. c gray59",
"x. c #979797",
"c. c #989898",
"v. c gray60",
"b. c #9A9A9A",
"n. c #9B9B9B",
"m. c gray61",
"M. c #9C9C9D",
"N. c gray62",
"B. c #9F9F9F",
"V. c #A1A193",
"C. c #A0A0A0",
"Z. c #A2A2A2",
"A. c #A3A3A2",
"S. c gray64",
"D. c #A4A4A4",
"F. c #A5A5A5",
"G. c gray65",
"H. c #AAAAAA",
"J. c #ACACAC",
"K. c gray68",
"L. c #AEAEAE",
"P. c gray69",
"I. c #B1B1B1",
"U. c gray70",
"Y. c #B7B7B7",
"T. c #BBBBB6",
"R. c gray73",
"E. c #BBBBBB",
"W. c #BCBCBC",
"Q. c gray74",
"!. c gray",
"~. c gray75",
"^. c #C0C0C0",
"/. c gray76",
"(. c #C3C3C3",
"). c gray77",
"_. c #C5C5C5",
"`. c #C6C6C6",
"'. c gray78",
"]. c #C8C8C8",
"[. c gray79",
"{. c #CACACA",
"}. c #CBCBCB",
"|. c gray80",
" X c #CDCDCD",
".X c #CECECE",
"XX c gray81",
"oX c #D0D0D0",
"OX c gray82",
"+X c #D2D2D2",
"@X c LightGray",
"#X c gray83",
"$X c #D5D5D5",
"%X c gray84",
"&X c #D7D7D7",
"*X c #D8D8D8",
"=X c gray85",
"-X c #DADADA",
";X c gainsboro",
":X c #DDDDDD",
">X c gray87",
",X c #DFDFDF",
"<X c gray88",
"1X c #E1E1E1",
"2X c #E2E2E2",
"3X c gray89",
"4X c #E4E4E4",
"5X c #E7E7E7",
"6X c #EBEBE7",
"7X c gray91",
"8X c #E9E9E9",
"9X c #EAEAEA",
"0X c gray93",
"qX c #EEEEEE",
"wX c #EFEFEF",
"eX c gray94",
"rX c #F1F1F1",
"tX c #F3F3F3",
"yX c #F4F4F4",
"uX c gray96",
"iX c #F6F6F6",
"pX c gray97",
"aX c #F8F8F7",
"sX c #F6F6F8",
"dX c #F8F8F8",
"fX c #F9F9F9",
"gX c #F9F9FB",
"hX c gray98",
"jX c #FAFAFB",
"kX c #FBFBFB",
"lX c gray99",
"zX c #FDFDFD",
"xX c #FEFEFE",
"cX c #FEFEFF",
"vX c white",
/* pixels */
"                                t.j.s.i.. . Q S s               ",
"                            i.Q.>X3X3X>XR.k.S j.t.F U           ",
"                          i.+X}.t.$.$.i.XX+XXX .H.^.Q.v.F       ",
"                          ^.+XXX5Xv.v.j.@.v.^.+Xk.dXvXvX3XE     ",
"                        $.vXvXvXvXvXQ.0.v.s.$.>Xi.P.8X3Xs..     ",
"                        i.vXvXvXvXvX3Xs.t.j.s.Z.3X% B 3 B S     ",
"                        $.vXvXvXvXvXvX8X}.s.s.D.>XB }.5X&X'     ",
"                      0 3XvXvXvXvXvXvXvXvX}.0.s._.P.}.vXvX^.    ",
"                      U vXvXvXvXvXvXvXvXvX8Xk.0.Q.}.Q.vXvX&X    ",
"                      L vXvXvXvXvXvXvXvXvXvX}.X.^.^.^.vXvXXX    ",
"                      U vXvXvXvXvXvXvXvXvXvX}. .^._.Q.vXvX+X    ",
"                      s wXvXvXvXvXvXvXvXvXvX_.@.^.Q.^.vXvX}.    ",
"                        i.vXvXvXvXvXvXvXvX>X0.D.>Xs -XvXpX@.    ",
"                        . Z.-X}.vXvXvXvXvX3X@.Z.3X' tXvXXXF     ",
"              . . 0.&XXX+XD.. F B.&XvXvXdXP.i.+Xv.R.vXdX0..     ",
"        S 0 R.dXwXvXvXvXvXdX5Xj.. C +XvXL.@.XX^.. XXvXQ.0..     ",
"      $.tXvXvXvXpXpXwXwXtXvXvXdX8X$.p +XZ.s.' . L.vXY.F  ..     ",
"    . tXvXdX>Xp.E _ ' Q s.>XpXvXvXvX+X' @.E . S v.Q.L  .1       ",
"    Z.vXdXB.e 1 . . . . 8 r Z.dXvXvXvX@.. % + E @.^ C y .       ",
"    >XvX3X. . 6 , ; ; ; # . . Z.vXvXvX8Xs . % . L B . . =       ",
"    Q.vX8X. 7 o . n v c n h . Z aXvXvXwXB . = = .               ",
"    S &XXX. $ -.,.2.1.4.5.<.k 4 pXvXvXL.. . %                   ",
"    . 0 y : # ;.3.7.7.>.=.:.j T.vXvX3X' u Q .                   ",
"      i.$.. o o x k x g 4 V.6XvXvXvXQ.1 X.B                     ",
"    . 5XvX$.. > J *.{ 5XdXdXvXvXvX-XU 0.s..                     ",
"      ) wXpXXX) B.sXvXvXvXvXwX>XXXQ Q s. .                      ",
"      . ' XX&Xs.u t.}.^.^.}.t.. S ) i. ..                       ",
"          . Q k.@. .p B S U @.&X5XtXD..                         ",
"               .+XvXvXvXdX5XwXP.k.t.0                           ",
"              s XX+X&X-X_.^ _ . . .                             ",
"              . . B.>X-X_.)  .' 0                               ",
"                e X.j.j.t.F U F                                 "
};
