/* XPM */
static char *c71f008a5fd64371b32cf9ca7ef93e2d42RXkQ57Fu8DpdDj[] = {
/* columns rows colors chars-per-pixel */
"120 120 5 1 ",
"  c None",
". c black",
"X c #0000E0",
"o c #909090",
"O c white",
/* pixels */
"                                                            .................................                           ",
"                                                            .................................                           ",
"                                                            .................................                           ",
"                                                      ...... OOOOOOOOOOOOOO......ooooooooooo .........                  ",
"                                                      ......OOOOOOOOOOOOOOO......oooooooooooo.........                  ",
"                                                      ......OOOOOOOOOOOOOOO......oooooooooooo.........                  ",
"                                                   ... OOOOOoooooooooooooooOOOOOO......oooooooooooooo ......            ",
"                                                   ...OOOOOOoooooooooooooooOOOOOO......ooooooooooooooo......            ",
"                                                   ...OOOOOOoooooooooooooooOOOOOO......ooooooooooooooo......            ",
"                                                ... OOoooooooooooooooooooooooooooOOOOOO...oooOOOoooOOOooooo ...         ",
"                                                ...OOOoooooooooooooooooooooooooooOOOOOO...oooOOOoooOOOoooooo...         ",
"                                                ...OOOoooooooooooooooooooooooooooOOOOOO...oooOOOoooOOOoooooo...         ",
"                                                ...OOOoooOOOOOOooooooooooooooooooooooooOOO...OOOOOOOOOOOOOOOoo ...      ",
"                                                ...OOOoooOOOOOOooooooooooooooooooooooooOOO...OOOOOOOOOOOOOOOooo...      ",
"                                                ...OOOoooOOOOOOooooooooooooooooooooooooOOO...OOOOOOOOOOOOOOOooo...      ",
"                                             ... OOOOOOOOOOOOOOOOOOOOooooooooooooooooooOOO...oooOOOOOOOOOooo......      ",
"                                             ...OOOOOOOOOOOOOOOOOOOOOooooooooooooooooooOOO...oooOOOOOOOOOooo......      ",
"                                             ...OOOOOOOOOOOOOOOOOOOOOooooooooooooooooooOOO...oooOOOOOOOOOooo......      ",
"                                             ...OOOOOOOOOOOOOOOOOOOOOoooooooooooooooooooooOOO.....................      ",
"                                             ...OOOOOOOOOOOOOOOOOOOOOoooooooooooooooooooooOOO.....................      ",
"                                             ...OOOOOOOOOOOOOOOOOOOOOoooooooooooooooooooooOOO.....................      ",
"                                             ...OOOOOOOOOOOOOOOOOOOOOOOOooooooooooooooooooOOO...ooooooooooooooo...      ",
"                                             ...OOOOOOOOOOOOOOOOOOOOOOOOooooooooooooooooooOOO...ooooooooooooooo...      ",
"                                             ...OOOOOOOOOOOOOOOOOOOOOOOOooooooooooooooooooOOO...ooooooooooooooo...      ",
"                                             ...OOOOOOOOOOOOOOOOOOOOOOOOOOOOOOooooooooooooOOO...oooOOOOOOOOOooo...      ",
"                                             ...OOOOOOOOOOOOOOOOOOOOOOOOOOOOOOooooooooooooOOO...oooOOOOOOOOOooo...      ",
"                                             ...OOOOOOOOOOOOOOOOOOOOOOOOOOOOOOooooooooooooOOO...oooOOOOOOOOOooo...      ",
"                                          ... OOOOOOOOOOOOOOOOOOOOOOOOOOOOOOOOOOOooooooooooooOOO...OOOOOOOOOOOO...      ",
"                                          ...OOOOOOOOOOOOOOOOOOOOOOOOOOOOOOOOOOOOooooooooooooOOO...OOOOOOOOOOOO...      ",
"                                          ...OOOOOOOOOOOOOOOOOOOOOOOOOOOOOOOOOOOOooooooooooooOOO...OOOOOOOOOOOO...      ",
"                                          ...OOOOOOOOOOOOOOOOOOOOOOOOOOOOOOOOOOOOooooooooooooOOO...OOOOOOOOOOOO...      ",
"                                          ...OOOOOOOOOOOOOOOOOOOOOOOOOOOOOOOOOOOOooooooooooooOOO...OOOOOOOOOOOO...      ",
"                                          ...OOOOOOOOOOOOOOOOOOOOOOOOOOOOOOOOOOOOooooooooooooOOO...OOOOOOOOOOOO...      ",
"                                          ...OOOOOOOOOOOOOOOOOOOOOOOOOOOOOOOOOOOOOOOoooooooooOOO...OOOOOOOOOOOO...      ",
"                                          ...OOOOOOOOOOOOOOOOOOOOOOOOOOOOOOOOOOOOOOOoooooooooOOO...OOOOOOOOOOOO...      ",
"                                          ...OOOOOOOOOOOOOOOOOOOOOOOOOOOOOOOOOOOOOOOoooooooooOOO...OOOOOOOOOOOO...      ",
"                                          ...OOOOOOOOOOOOOOOOOOOOOOOOOOOOOOOOOOOOOOOoooooooooOOO...OOOOOOOOOOOO...      ",
"                                          ...OOOOOOOOOOOOOOOOOOOOOOOOOOOOOOOOOOOOOOOoooooooooOOO...OOOOOOOOOOOO...      ",
"                                          ...OOOOOOOOOOOOOOOOOOOOOOOOOOOOOOOOOOOOOOOoooooooooOOO...OOOOOOOOOOOO...      ",
"                                          ...OOOOOOOOOOOOOOOOOOOOOOOOOOOOOOOOOOOOOOOoooooooooOOO...OOOOOOOOOOOO...      ",
"                                          ...OOOOOOOOOOOOOOOOOOOOOOOOOOOOOOOOOOOOOOOoooooooooOOO...OOOOOOOOOOOO...      ",
"                                          ...OOOOOOOOOOOOOOOOOOOOOOOOOOOOOOOOOOOOOOOoooooooooOOO...OOOOOOOOOOOO...      ",
"                                          ...OOOOOOOOOOOOOOOOOOOOOOOOOOOOOOOOOOOOOOOoooooooooOOO...OOOOOOOOOOOO...      ",
"                                          ...OOOOOOOOOOOOOOOOOOOOOOOOOOOOOOOOOOOOOOOoooooooooOOO...OOOOOOOOOOOO...      ",
"                                          ... OOOOOOOOOOOOOOOOOOOOOOOOOOOOOOOOOOOOOOoooooooooOOO...OOOOOOOOOOOO...      ",
"                                             ...OOOOOOOOOOOOOOOOOOOOOOOOOOOOOOOOOoooooooooOOO...oooOOOOOOOOOooo...      ",
"                                             ...OOOOOOOOOOOOOOOOOOOOOOOOOOOOOOOOOoooooooooOOO...oooOOOOOOOOOooo...      ",
"                                             ...OOOOOOOOOOOOOOOOOOOOOOOOOOOOOOOOOoooooooooOOO...oooOOOOOOOOOooo...      ",
"                                             ...oooOOOOOOOOOOOOOOOOOOOOOOOOOOOOOOoooooooooOOO...oooOOOOOOOOOooo...      ",
"                                             ...oooOOOOOOOOOOOOOOOOOOOOOOOOOOOOOOoooooooooOOO...oooOOOOOOOOOooo...      ",
"                                             ...oooOOOOOOOOOOOOOOOOOOOOOOOOOOOOOOoooooooooOOO...oooOOOOOOOOOooo...      ",
"                                    ...............ooo......OOOOOOOOOOOOOOOOOOOOOoooooooooOOO...OOOOOOOOOooo......      ",
"                                    ...............ooo......OOOOOOOOOOOOOOOOOOOOOoooooooooOOO...OOOOOOOOOooo......      ",
"                                    ...............ooo......OOOOOOOOOOOOOOOOOOOOOoooooooooOOO...OOOOOOOOOooo......      ",
"                        ............ OOOOOOOOOOOOOO......ooo......OOOOOOOOOOOOoooooooooOOO...oooOOOOOOOOOooo......      ",
"                        ............OOOOOOOOOOOOOOO......ooo......OOOOOOOOOOOOoooooooooOOO...oooOOOOOOOOOooo......      ",
"                        ............OOOOOOOOOOOOOOO......ooo......OOOOOOOOOOOOoooooooooOOO...oooOOOOOOOOOooo......      ",
"               ......... OOOOOOOOOOOOOOOOOOOOOOOOOOOOOOOO......ooo...OOOOOOoooooooooOOOooo...oooOOOOOOoooooo......      ",
"               .........OOOOOOOOOOOOOOOOOOOOOOOOOOOOOOOOO......ooo...OOOOOOoooooooooOOOooo...oooOOOOOOoooooo......      ",
"               .........OOOOOOOOOOOOOOOOOOOOOOOOOOOOOOOOO......ooo...OOOOOOoooooooooOOOooo...oooOOOOOOoooooo......      ",
"         ...... OOOOOOOOOOOOOOOOOOOOOOOOOOOOOOOOOOOOOOOOOOOOOOO.........OOOooooooooo......oooOOOOOOooo...ooo......      ",
"         ......OOOOOOOOOOOOOOOOOOOOOOOOOOOOOOOOOOOOOOOOOOOOOOOO.........OOOooooooooo......oooOOOOOOooo...ooo......      ",
"         ......OOOOOOOOOOOOOOOOOOOOOOOOOOOOOOOOOOOOOOOOOOOOOOOO.........OOOooooooooo......oooOOOOOOooo...ooo......      ",
"         ...OOOOOOOOOOOOOOOoooooooooooooooooooooOOOOOOOOOOOOOOOOOOOOO...ooooooooo.........oooOOOooo...ooo......         ",
"         ...OOOOOOOOOOOOOOOoooooooooooooooooooooOOOOOOOOOOOOOOOOOOOOO...ooooooooo.........oooOOOooo...ooo......         ",
"         ...OOOOOOOOOOOOOOOoooooooooooooooooooooOOOOOOOOOOOOOOOOOOOOO...ooooooooo.........oooOOOooo...ooo......         ",
"         ...OOOOOOOOOoooooo.....................ooooooOOOOOOOOOOOOOOOOOO...............ooo...ooo...ooo.........         ",
"         ...OOOOOOOOOoooooo.....................ooooooOOOOOOOOOOOOOOOOOO...............ooo...ooo...ooo.........         ",
"         ...OOOOOOOOOoooooo.....................ooooooOOOOOOOOOOOOOOOOOO...............ooo...ooo...ooo.........         ",
"      ... OOOOOOOOooo.................................oooOOOOOOOOOOOOOOO..................oooooo............            ",
"      ...OOOOOOOOOooo.................................oooOOOOOOOOOOOOOOO..................oooooo............            ",
"      ...OOOOOOOOOooo.................................oooOOOOOOOOOOOOOOO..................oooooo............            ",
"      ...OOOOOOOOO.......................................oooOOOOOOOOOOOOOOO.................................            ",
"      ...OOOOOOOOO.......................................oooOOOOOOOOOOOOOOO.................................            ",
"      ...OOOOOOOOO.......................................oooOOOOOOOOOOOOOOO.................................            ",
"      ...OOOOOOOOO..........................................OOOOOOOOOOOOOOO.....................                        ",
"      ...OOOOOOOOO..........................................OOOOOOOOOOOOOOO.....................                        ",
"      ...OOOOOOOOO..........................................OOOOOOOOOOOOOOO.....................                        ",
"      ...oooOOOOOO...............XXXXXXXXXXXXXXXXXX.........OOOOOOOOOOOOooo............                                 ",
"      ...oooOOOOOO...............XXXXXXXXXXXXXXXXXX.........OOOOOOOOOOOOooo............                                 ",
"      ...oooOOOOOO...............XXXXXXXXXXXXXXXXXX.........OOOOOOOOOOOOooo............                                 ",
"      ......oooooo.........XXXXXXXXXXXXXXXXXXXXXXXXXXX......OOOOOOOOOOOOooo............                                 ",
"      ......oooooo.........XXXXXXXXXXXXXXXXXXXXXXXXXXX......OOOOOOOOOOOOooo............                                 ",
"      ......oooooo.........XXXXXXXXXXXXXXXXXXXXXXXXXXX......OOOOOOOOOOOOooo............                                 ",
"         .....................XXXXXXXXXXXX...............OOOOOOOOOOOOooo......ooo......                                 ",
"         .....................XXXXXXXXXXXX...............OOOOOOOOOOOOooo......ooo......                                 ",
"         .....................XXXXXXXXXXXX...............OOOOOOOOOOOOooo......ooo......                                 ",
"         ...oooooo.................................OOOOOOOOOOOOOOOOOOooo...ooo......                                    ",
"         ...oooooo.................................OOOOOOOOOOOOOOOOOOooo...ooo......                                    ",
"         ...oooooo.................................OOOOOOOOOOOOOOOOOOooo...ooo......                                    ",
"         ...OOOOOOooo.....................OOOOOOOOOOOOOOOOOOOOOOOOooo...oooooo......                                    ",
"         ...OOOOOOooo.....................OOOOOOOOOOOOOOOOOOOOOOOOooo...oooooo......                                    ",
"         ...OOOOOOooo.....................OOOOOOOOOOOOOOOOOOOOOOOOooo...oooooo......                                    ",
"         ...oooOOOOOOoooooo...oooOOOOOOOOOOOOOOOOOOOOOOOOOOOOOOoooooo...oooooo...                                       ",
"         ...oooOOOOOOoooooo...oooOOOOOOOOOOOOOOOOOOOOOOOOOOOOOOoooooo...oooooo...                                       ",
"         ... ooOOOOOOoooooo...oooOOOOOOOOOOOOOOOOOOOOOOOOOOOOOOoooooo...ooooo ...                                       ",
"            ...oooOOOOOOOOO...ooooooOOOOOOOOOOOOOOOOOOooooooooo......oooooo...                                          ",
"            ...oooOOOOOOOOO...ooooooOOOOOOOOOOOOOOOOOOooooooooo......oooooo...                                          ",
"            ...oooOOOOOOOOO...ooooooOOOOOOOOOOOOOOOOOOooooooooo......oooooo...                                          ",
"            ......oooooooooooo......oooooooooooooooooo.........ooooooooo......                                          ",
"            ......oooooooooooo......oooooooooooooooooo.........ooooooooo......                                          ",
"            ...... ooooooooooo......oooooooooooooooooo.........ooooooooo......                                          ",
"                  ......oooooooooooo..................oooOOOOOOOOOOOO......                                             ",
"                  ......oooooooooooo..................oooOOOOOOOOOOOO......                                             ",
"                  ...... ooooooooooo..................oooOOOOOOOOOOOO......                                             ",
"                        ...ooooooOOOOOOOOOOOOOOOOOOOOOOOOooooooooo......                                                ",
"                        ...ooooooOOOOOOOOOOOOOOOOOOOOOOOOooooooooo......                                                ",
"                        ... oooooOOOOOOOOOOOOOOOOOOOOOOOOooooooooo......                                                ",
"                           ...OOOOOOOOOOOOOOOOOOooooooooo............                                                   ",
"                           ...OOOOOOOOOOOOOOOOOOooooooooo............                                                   ",
"                           ...OOOOOOOOOOOOOOOOOOooooooooo............                                                   ",
"                           .........oooooooooooo..................                                                      ",
"                           .........oooooooooooo..................                                                      ",
"                           .........oooooooooooo..................                                                      ",
"                           ......oooOOOOOOOOOOOOoooooooooooo...                                                         ",
"                           ......oooOOOOOOOOOOOOoooooooooooo...                                                         ",
"                           ......oooOOOOOOOOOOOOooooooooooo ...                                                         ",
"                              ..............................                                                            ",
"                              ..............................                                                            ",
"                              ..............................                                                            "
};
