/* XPM */
static char *_dbba417079e40b3c195c8e03580004b1R5SSaXgVVKWg8wE[] = {
/* columns rows colors chars-per-pixel */
"32 32 148 2 ",
"   c #010100",
".  c #0B0B00",
"X  c #0B0A0A",
"o  c #100F0F",
"O  c #111100",
"+  c #060613",
"@  c #09091A",
"#  c #141313",
"$  c #121219",
"%  c #1B1A1A",
"&  c #211F1F",
"*  c #212100",
"=  c #0B0B23",
"-  c #1B1B24",
";  c #262525",
":  c #282525",
">  c #2C2A2A",
",  c #2D2D31",
"<  c #343434",
"1  c #3A3736",
"2  c #3D3B3B",
"3  c #413F3F",
"4  c #42413D",
"5  c #1A1A49",
"6  c #000051",
"7  c #00005B",
"8  c #01016C",
"9  c #020271",
"0  c #444444",
"q  c #4B4646",
"w  c #4D4847",
"e  c #47474B",
"r  c #4B4B4A",
"t  c #514E4E",
"y  c #59594A",
"u  c #555454",
"i  c #5C5757",
"p  c #5C5857",
"a  c #5D5B5B",
"s  c #635C5C",
"d  c #67605F",
"f  c #646363",
"g  c #6D6564",
"h  c #6F6867",
"j  c #6D6D6D",
"k  c #736B6B",
"l  c #727266",
"z  c #727272",
"x  c #7C7574",
"c  c #7B7B7B",
"v  c #807776",
"b  c #817977",
"n  c #827C7C",
"m  c #88887E",
"M  c #000087",
"N  c #020289",
"B  c #020297",
"V  c #00009C",
"C  c #0000A6",
"Z  c #0000AC",
"A  c #1818D6",
"S  c #0000E3",
"D  c #0F0FE7",
"F  c #0D0DEB",
"G  c #1D1DE5",
"H  c #838383",
"J  c #8C8584",
"K  c #8C8C8C",
"L  c #918786",
"P  c #928887",
"I  c #968C8B",
"U  c #988E8D",
"Y  c #9A908F",
"T  c #949494",
"R  c #9C9190",
"E  c #9B9B9B",
"W  c #A1A193",
"Q  c #A3A3A3",
"!  c #ACACAC",
"~  c #B3B3B3",
"^  c #BBBBB6",
"/  c #BEBEBE",
"(  c gray74",
")  c #BBBBBB",
"_  c #C0C0C0",
"`  c gray76",
"'  c #C3C3C3",
"]  c #C5C5C5",
"[  c #C6C6C6",
"{  c #C5C5C5",
"}  c #C8C8C8",
"|  c gray79",
" . c #CACACA",
".. c #CBCBCB",
"X. c #CDCDCD",
"o. c #CECECE",
"O. c gray81",
"+. c #CFCECE",
"@. c #CCCCCC",
"#. c #D0D0D0",
"$. c gray82",
"%. c #D2D2D2",
"&. c LightGray",
"*. c #D4D3D3",
"=. c #D5D5D5",
"-. c gray83",
";. c #D7D7D7",
":. c #D3D3D3",
">. c #D9D9D9",
",. c gainsboro",
"<. c #DDDDDD",
"1. c gray87",
"2. c gray86",
"3. c #E0DFDF",
"4. c gray88",
"5. c #E1E1E1",
"6. c #E2E2E2",
"7. c gray89",
"8. c #E7E7E7",
"9. c #E4E4E4",
"0. c #E4E4E4",
"q. c #EBEBE7",
"w. c gray91",
"e. c #E9E9E9",
"r. c #EAEAEA",
"t. c gray93",
"y. c #EEEEEE",
"u. c #EFEFEF",
"i. c gray93",
"p. c gray94",
"a. c #F1F1F1",
"s. c #F3F3F3",
"d. c #F4F4F4",
"f. c #F5F4F4",
"g. c #F7F6F6",
"h. c gray97",
"j. c #F4F4F4",
"k. c #F8F8F7",
"l. c #F6F6F8",
"z. c #F8F8F8",
"x. c #F9F9F9",
"c. c gray98",
"v. c #FBFBFB",
"b. c gray99",
"n. c #FDFDFD",
"m. c #FEFEFE",
"M. c white",
"N. c #FEFEFE",
/* pixels */
"Y U U Y I Y U U Y I U U I Y J x J T K K     a e i J n I Y I I U ",
"Y I U R P R U I R I U I I I K ( >.5.5.1.) T e T J r p s b U P R ",
"Y U U Y I Y U I Y I U U J K %...H c c K O.%.O.z ! ' ( E p v U U ",
"Y U U U U U U U U I U U x _ %.O.8.E E T c E _ #.T v.M.M.5.f x U ",
"R I U R P R U I R P Y P H v.M.M.M.M.( H E K c 1.K ~ e.5.K   k R ",
"U U U U U U U U U I U P K M.M.M.M.M.5.K H T K Q 5.X 0 % 0 e g U ",
"Y I U Y I Y I I Y P U I n M.M.M.M.M.M.e...K K Q 1.0 ..8.*.j g R ",
"Y I U Y P R I I Y I U i 3.M.M.M.M.M.M.M.M...H K ] ~ ..M.M._ g R ",
"Y U U U U U U U U U U f M.M.M.M.M.M.M.M.M.e.T H ( ..( M.M.;.g U ",
"Y I U Y I Y U I Y I U f M.M.M.M.M.M.M.M.M.M...z _ _ _ M.M.O.g R ",
"Y I U Y I Y U U Y U U f M.M.M.M.M.M.M.M.M.M...z _ ] ( M.M.%.g U ",
"Y I U Y I R U I Y I U p y.M.M.M.M.M.M.M.M.M.] c _ ( _ M.M...g Y ",
"Y I U Y I R I I I I U U K M.M.M.M.M.M.M.M.1.H Q 1.2 >.M.g.c g R ",
"Y U I I U U U U U J s s X Q >...M.M.M.M.M.5.c Q 5.j s.M.O.r g U ",
"R I U R P R h 2 w J ;.O.%.Q   r E ;.M.M.v.~ K %.E ) M.v.H   x R ",
"Y U I P f 0 ~ v.y.M.M.M.M.v.8.T   0 %.M.! c O._   O.M.( H   h U ",
"U U w n y.M.M.v.g.s.y.y.s.M.M.v.e.c 2 %.Q K j   ! M.^ r z % x U ",
"I I q s.M.g.1.K p j j a K 1.g.M.M.M.%.j c p   e E ( u z % t U U ",
"Y x E M.v.E > %         - , Q v.M.M.M.c   X   p c f 0 < & J I U ",
"Y p 1.M.5.    = $ O O O .     Q M.M.M.e.2   X   u 0 % o w I P R ",
"U s ( M.e.  - .   9 8 8 9 5   e k.M.M.y.0   # 1 > d Y I U I U Y ",
"Y p e ;.O.  . N Z S S F F A 7 * g.M.M.!     X J U U Y I Y U I U ",
"Y J > : < + . B D G G C M V 6 ^ M.M.5.j < a X J I I Y P U U U R ",
"I U w K c   . . 7 7 7 4 * W q.M.M.M.( % x 0 p U U U U U U U I U ",
"Y I 2 8.v.c   @ y m l 8.v.v.M.M.M.>.u H K # n R P U R P Y U U R ",
"U I h j y.g.O.f E l.M.M.M.M.y.1.O.a f K x x I U I U R I U U U R ",
"U I U > j O.;.K < H .._ _ ..H   e f K z 1 U I U U U U U U I U U ",
"Y I I J g # f T c z 2 0 e u c ;.8.s.Q : P U P R I I R P Y U U R ",
"Y I I U I U f z %.M.M.M.v.8.y.~ T H 3 J U U I U U U U I U U I U ",
"Y I U U I Y U u O.%.;.>.] f j     ; J I I U I Y U U Y I U U I Y ",
"Y I U Y I U U :   E 1.>.] f z j 4 L U P U U I Y U U Y I U U U Y ",
"U U U U U I U b < z T T H t u p J U I U U U U U U U U U U U U U "
};
