/* XPM */
static char *_c7e012b9aab45d8fa8d809c40359b35qD1rmll3I26B3q0V[] = {
/* columns rows colors chars-per-pixel */
"32 32 25 1 ",
"  c #00000A",
". c #00000C",
"X c #000017",
"o c #000018",
"O c #000025",
"+ c #00002C",
"@ c #292946",
"# c #2D2D48",
"$ c #3E3E53",
"% c #565665",
"& c #7E7E86",
"* c #83838B",
"= c #85858D",
"- c #898990",
"; c #909097",
": c #919198",
"> c #95959B",
", c #D3D3D4",
"< c #E0E0E1",
"1 c #E7E7E8",
"2 c gray91",
"3 c #F1F1F1",
"4 c #F8F8F8",
"5 c gray98",
"6 c white",
/* pixels */
"$#+.XooooooooooooooooooooooX.+#$",
"@%*>;-;;;;;;;;;;--;;;;;;;;;:>*%@",
"O&,32222222222222222222222223,&O",
" -2666666666666666666666666662- ",
"X=<65555555555555555555555556<=X",
"o=<65555555555555555555555556<=X",
"o=<65555555555555545555555556<=X",
"o=<65555555555555555555555556<=X",
"o=<65555555555555555555555556<=X",
"o=<65555555555545555555555556<=X",
"o=<65555555555555555545555556<=X",
"o=<65555555555555555555555556<=X",
"o=<65555555555555545555555556<=X",
"o=<65555555555555555555555556<=X",
"o=<65555555555555555555555556<=X",
"o=<65555554555555555555555556<=X",
"o=<65555555555555455555555556<=X",
"o=<65555555555555555555555556<=X",
"o=<65555455555555555555555556<=X",
"o=<65555555555555555545555556<=X",
"o=<65555555555555555555555556<=X",
"o=<65555555555555545555555556<=X",
"o=<65555555555555555555555556<=X",
"o=<65555555555555555555555556<=X",
"o=<65555555555555555555555556<=X",
"o=<65555555555555555555555556<=X",
"o=<65555555555555555555555556<=X",
"X=<65555555555555555555555556<=X",
" -2666666666666666666666666661- ",
"O&,32222222222221122222222223,&O",
"@%*>:;;;--;;:;;;---;::;;;;;:>*%@",
"$#+.oooooooXooooXXXooooooooo.+#$"
};
