/* XPM */
static char *c0fd1fb359254c0b894948a13a52ba6aoWHA8CUixYqAPPWk[] = {
/* columns rows colors chars-per-pixel */
"16 17 2 1 ",
"  c #3A3A50",
". c #F8F8F8",
/* pixels */
"                ",
" .............. ",
" .............. ",
" .............. ",
" .............. ",
" .............. ",
" .............. ",
" .............. ",
" .............. ",
" .............. ",
" .............. ",
" .............. ",
" .............. ",
" .............. ",
" .............. ",
" .............. ",
"                "
};
