/* XPM */
static char *ef0204ff80944709cdd9832bd51997f1MU290GpkJA5ZSV3X[] = {
/* columns rows colors chars-per-pixel */
"32 32 91 1 ",
"  c None",
". c black",
"X c #3E0000",
"o c #2D201E",
"O c #112725",
"+ c #1B2826",
"@ c #172F2C",
"# c #1B2F2C",
"$ c #302827",
"% c #570000",
"& c #570807",
"* c #5E0D0E",
"= c #750000",
"- c #770000",
"; c #7C0000",
": c #641515",
"> c #6D1F20",
", c #656967",
"< c #6B6B69",
"1 c #687370",
"2 c #727372",
"3 c #747674",
"4 c #7B7D7B",
"5 c #7C7D7C",
"6 c #810000",
"7 c #900000",
"8 c #99161A",
"9 c #A4000F",
"0 c #A50111",
"q c #981D21",
"w c #952326",
"e c #962427",
"r c #8A3A3B",
"t c #8B3A3B",
"y c #8F393B",
"u c #883C3D",
"i c #92393B",
"p c #943F41",
"a c #926363",
"s c #986D6C",
"d c #7E817E",
"f c #B2847D",
"g c #7B8482",
"h c #818180",
"j c #858785",
"k c #8B8E8B",
"l c #8C8E8C",
"z c #909290",
"x c #989B98",
"c c #AE8281",
"v c #BD958E",
"b c #BE958E",
"n c #A69A99",
"m c #B59998",
"M c #B59A99",
"N c #9EA09E",
"B c #A8AAA8",
"V c #ABADAB",
"C c #ADAEAD",
"Z c #ADAFAD",
"A c #AEAFAE",
"S c #BCA4A4",
"D c #B3A9A8",
"F c #B0B3B0",
"G c #B3B5B3",
"H c #B4B5B4",
"J c #B7B9B7",
"K c #B8BAB8",
"L c #B9BAB9",
"P c #B9BBB9",
"I c #BBBCBB",
"U c #BBBDBB",
"Y c #C09890",
"T c #C09891",
"R c #BEC0BE",
"E c #C2C3C2",
"W c #C3C4C3",
"Q c #C7C8C7",
"! c #C8C9C8",
"~ c #C9CAC9",
"^ c #D0D1D0",
"/ c #D1D2D1",
"( c #D3D4D3",
") c #D7D9D8",
"_ c #D9DBDA",
"` c #DADBDA",
"' c #DBDCDB",
"] c gainsboro",
"[ c #DCDDDC",
"{ c #E2DFDF",
"} c #FBFCFB",
/* pixels */
"                                ",
"                                ",
"                                ",
"                                ",
"            P    I P            ",
"          GW!!!!Q}P HJ          ",
"           //      /(           ",
"           [        [           ",
"           _        _           ",
"           _        _           ",
"           _        '           ",
"           _S      {)           ",
"           nfYvvvvYcD           ",
"           .%uittypX,           ",
"            o;6--76$            ",
"            @*qwe8&#            ",
"             O>09:+             ",
"               mm               ",
"               sa               ",
"               g1               ",
"               h<               ",
"               2d               ",
"               4F               ",
"               4Z               ",
"               5Z               ",
"               3Z               ",
"              klNE              ",
"            jzxVBZRI            ",
"                                ",
"                                ",
"                                ",
"                                "
};
