/* XPM */
static char *_5d779a20d3545e5e7c0057519b32acbm6fFJAe3nNkYaPD8[] = {
/* columns rows colors chars-per-pixel */
"32 32 173 2 ",
"   c #9A908F",
".  c #988E8D",
"X  c #978D8C",
"o  c #998F8E",
"O  c #998E8D",
"+  c #9B9190",
"@  c #958B8A",
"#  c #968C8B",
"$  c #978E8D",
"%  c #9D9392",
"&  c #9C9291",
"*  c #988D8C",
"=  c #9C9190",
"-  c #A19A99",
";  c #AAA7A5",
":  c #A7A3A1",
">  c #A8A4A2",
",  c #A8A4A3",
"<  c #AAA6A4",
"1  c #A6A2A0",
"2  c #A9A5A4",
"3  c #A09997",
"4  c #9A8F8E",
"5  c #948A89",
"6  c #C3C4C3",
"7  c #BCBBBA",
"8  c #C2C2C1",
"9  c #C1C0BF",
"0  c #C1C1C0",
"q  c #FBFCFB",
"w  c #ABA7A5",
"e  c #A19D9B",
"r  c #ACAAA9",
"t  c #9D9291",
"y  c #988F8E",
"u  c #9A9190",
"i  c #D0D1D0",
"p  c #C6C5C4",
"a  c #A29C9A",
"s  c #A49F9D",
"d  c #A39F9D",
"f  c #A39E9C",
"g  c #A29D9B",
"h  c #A19C9A",
"j  c #C7C6C5",
"k  c #D3D4D3",
"l  c #99908F",
"z  c #988F8D",
"x  c #9A8E8D",
"c  c #968F8D",
"v  c #DCDDDC",
"b  c #BCB6B5",
"n  c #BBB5B5",
"m  c gainsboro",
"M  c #9A918F",
"N  c #DADBDA",
"B  c #C0BBBA",
"V  c #BEB8B7",
"C  c #988D8D",
"Z  c #BFB9B8",
"A  c #978F8D",
"S  c #C0BCBB",
"D  c #BCB7B7",
"F  c #DBDCDB",
"G  c #978D8D",
"H  c #97908E",
"J  c #D9DBDA",
"K  c #AD9B9A",
"L  c #916363",
"P  c #977776",
"I  c #977675",
"U  c #915E5E",
"Y  c #C4BEBD",
"T  c #D7D9D8",
"R  c #958E8C",
"E  c #9B9594",
"W  c #A69A99",
"Q  c #B2847D",
"!  c #C09890",
"~  c #BD958E",
"^  c #BE958E",
"/  c #C09891",
"(  c #AE8281",
")  c #B3A9A8",
"_  c #A09A98",
"`  c #9B908F",
"'  c #262423",
"]  c #570000",
"[  c #893F40",
"{  c #923B3D",
"}  c #8B3C3D",
"|  c #8A3C3D",
" . c #8F3B3D",
".. c #944244",
"X. c #3E0000",
"o. c #727271",
"O. c #7E7A79",
"+. c #2D201E",
"@. c #7C0202",
"#. c #810000",
"$. c #770000",
"%. c #750000",
"&. c #900000",
"*. c #810202",
"=. c #302827",
"-. c #6C6564",
";. c #9B9291",
":. c #2F413E",
">. c #5E0D0E",
",. c #982024",
"<. c #952326",
"1. c #962427",
"2. c #991A1E",
"3. c #570807",
"4. c #32413E",
"5. c #99908E",
"6. c #8F8482",
"7. c #1C2F2D",
"8. c #6D1F20",
"9. c #A50211",
"0. c #A4010F",
"q. c #641515",
"w. c #25302E",
"e. c #8E8382",
"r. c #9B8F8F",
"t. c #8E8483",
"y. c #8E8685",
"u. c #B59998",
"i. c #B59A99",
"p. c #8F8685",
"a. c #987675",
"s. c #946F6F",
"d. c #838785",
"f. c #757B78",
"g. c #888584",
"h. c #787573",
"j. c #7D7B7A",
"k. c #868582",
"l. c #968D8C",
"z. c #838280",
"x. c #AAA9A7",
"c. c #848281",
"v. c #A8A6A5",
"b. c #7F7E7C",
"n. c #A7A5A4",
"m. c #8F8D8B",
"M. c #8D8E8C",
"N. c #9E9F9D",
"B. c #B3B1B0",
"V. c #9F9796",
"C. c #8E8A89",
"Z. c #909290",
"A. c #989B98",
"S. c #ABADAB",
"D. c #A8AAA8",
"F. c #ADAFAD",
"G. c #BEC0BE",
"H. c #AAA6A5",
"J. c #988E8E",
"K. c #9A8E8E",
"L. c #928B89",
"P. c #98908F",
"I. c #918887",
"U. c #908887",
"Y. c #857D7C",
"T. c #9E9695",
"R. c #998F8D",
"E. c #998F8F",
"W. c #9A918E",
"Q. c #9A908E",
"!. c #978D8B",
"~. c #988E8C",
"^. c #9B918F",
/* pixels */
"  . .   X   . .   X o o .   X o o X   . o o X   . .   X   . X O ",
"  X o + @ + . X + # o . $ % X + + X & $ o o # & X . + @   . * = ",
"  . .   X   . $   # o o .   X o o X   X . . X   . .   #   . * = ",
"  . . o . o . . o X   - ; : > , > < 1 2 3   X o . o o X o . X 4 ",
"+ # o & 5 & . # + # : 6 7 8 9 0 9 q w e r ; @ % X . & 5   . * t ",
"o . . o y o . . . X u i p a s d f g h j k l . z o o . . . X * x ",
"  X .   #   X X   # c v b   # o o #   n m c #   X .   # o . * = ",
"  # .   @ + X # M # c N B + X o o X M B N c # + X X + @   . * = ",
"  . . o . o . . o X c N V o O O * C o Z N c X o . . o X o . X O ",
"  X .   #   . X   # A N S + # o o #   D F A # + G .   # o $ . t ",
"  X .   X   . .   X H J K L P I I P U Y T R X   . .   X   . X 4 ",
"  X o   # + . X   X E W Q ! ~ ^ ^ ~ / ( ) _ X + X . + #   . * ` ",
"  X o   # + . X o # o ' ] [ { } |  ...X.o.o X + X . + #   . * t ",
"  o . . o . . . o @ o O.+.@.#.$.%.&.*.=.-.  X . o o . . o . X O ",
"+ # o ;.5 & . # + # . . :.>.,.<.1.2.3.4.o o @ & X . & 5   . * t ",
"  . . 5.X   . X o X . . 6.7.8.9.0.q.w.e.. . X   . . o X o . * r.",
"o . . o X o . X o X o X X t.y.u.i.p.t.X X o X o . . o X o . * r.",
"  # . + 5 + X # + # o $ @ & @ a.s.@ + # . o @ & # X + 5   . * t ",
"  . . o . o . . o X o o X . . d.f.X . X o o X o . . o X o . X O ",
"  X .   X   . X   # o . X   X g.h.# o X . o #   . .   # o $ * t ",
"  X .   X   . .   X o . X o X j.k.X o X . o X   . .   X   . * ` ",
"  X .   l.  . .   X o . X l X z.x.X   X . o X   . .   X   . X 4 ",
"  X o + @ + . X + # o . X + # c.v.@ + X . o # & X . + @   . * t ",
"  o . . o . . . o X o o . X o c.v..   X .   . . o o . . o . X O ",
"+ X . + @ + . X   #   . X & # b.n.@   X o   # + X . + @   . * = ",
"  X . M # + . X   # l . X c m.M.N.B.V.X . o # + X . + # o . * = ",
"o . . . y . . . . X o . C.Z.A.S.D.F.G.H..   . . J.o . . . X * K.",
"  # . + 5 + X # + # o X L.P.I.y.U.Y.l T.. o @ & # X + 5   . * t ",
"  X . o X o . X o X o . X l X o . X o X o o X o . . o # o . X R.",
"  X .   X   . X E.# o . X   X o o X   X . o #   . .   l.o . X W.",
"Q.X . Q.#   . X o !.o . X   !.o o !.o X . o X   ~..   !.o ~.~.^.",
"~.~.~.~.~.~.~.~.~.~.~.~.~.~.~.~.~.~.~.~.~.. . ~.~.~.~.~.~.~.~.~."
};
