/* XPM */
static char *a0ba3a78382d47aef9a765554acf3406zKy7BivcAFsheTYj[] = {
/* columns rows colors chars-per-pixel */
"50 50 13 1 ",
"  c None",
". c #210000",
"X c #313431",
"o c #750B0B",
"O c #6A6C6A",
"+ c #940C10",
"@ c #A52C31",
"# c #94595A",
"$ c #848684",
"% c #BD9E94",
"& c #B7B9B7",
"* c #E2E2E2",
"= c white",
/* pixels */
"                                                  ",
"                                                  ",
"                                                  ",
"                                                  ",
"                                                  ",
"                                                  ",
"                                                  ",
"                  &&&&&&&&&&&&&&                  ",
"                &&* * * * *=    &&                ",
"                 &&&&&&&&&&&&&&&&                 ",
"                 &**          **&                 ",
"                 &*            *&                 ",
"                 &**          **&                 ",
"                 &*            *&                 ",
"                 &**          **&                 ",
"                 &*            *&                 ",
"                 &**          **&                 ",
"                 &*            *&                 ",
"                 &*###########**&                 ",
"                 &#%%%%%%%%%%%##&                 ",
"                 X.o##########o.&                 ",
"                  X.oo++o+o++o.X                  ",
"                  X.o+ooooo++o.X                  ",
"                   X.o+o+o++o.X                   ",
"                   X.o@+@+@+o.X                   ",
"                    X..@+@+..X                    ",
"                     XX@@@@XX                     ",
"                       &&&&                       ",
"                        @@                        ",
"                        $O                        ",
"                        $O                        ",
"                        $O                        ",
"                        $O                        ",
"                        OO                        ",
"                        O&                        ",
"                        O&                        ",
"                        O&                        ",
"                        O&                        ",
"                        O&                        ",
"                        O&                        ",
"                        O&                        ",
"                      $$$O&&                      ",
"                    $$$&&&&&&&                    ",
"                   $$$$$$$$$$&&                   ",
"                                                  ",
"                                                  ",
"                                                  ",
"                                                  ",
"                                                  ",
"                                                  "
};
